<svg xmlns="http://www.w3.org/2000/svg" width="512" height="512" viewBox="0 0 512 512" version="1.1">
	<path d="M 141.921 37.947 L 102.342 38.500 98.793 41.208 C 87.522 49.808, 81.200 70.856, 85.473 85.555 C 87.847 93.720, 89.994 97.575, 95.952 104.364 L 101.098 110.228 95.230 116.364 C 73.365 139.225, 76.938 177.116, 102.756 196.189 C 109.216 200.962, 108.625 201.962, 99.332 201.985 C 89.207 202.010, 87.769 203.489, 93 208.500 C 97.363 212.680, 96.887 215.839, 90.846 222.793 C 82.723 232.144, 77.887 249.362, 79.891 261.802 C 81.171 269.755, 85.238 278.778, 90.727 285.847 C 95.330 291.774, 95.704 293.820, 92.491 295.475 C 88.226 297.672, 87.950 298.038, 89.032 300.061 C 89.603 301.127, 90.660 302, 91.380 302 C 93.467 302, 96 305.426, 96 308.249 C 96 311.299, 96.999 311.015, 74 314.507 C 54.135 317.522, 48.394 319.926, 39.276 329.044 C 13.575 354.745, 17.104 402.200, 46.310 423.635 C 49.714 426.134, 52.644 428.570, 52.820 429.048 C 52.995 429.526, 50.224 431.239, 46.661 432.854 C 36.250 437.575, 34.500 442.887, 41.293 449.147 C 49.228 456.459, 66.656 461.858, 100.500 467.491 C 123.566 471.330, 140.163 473.360, 161.500 474.951 C 218.218 479.181, 314.143 478.940, 362 474.447 C 426.277 468.413, 471.881 457.446, 485.250 444.809 L 489 441.264 489 429.132 L 489 417 484.025 417 C 479.091 417, 479.055 416.977, 479.619 414.154 C 480.112 411.691, 479.712 411.027, 476.643 409.217 C 472.426 406.729, 468.989 400.440, 465.763 389.309 C 463.837 382.664, 463.504 379.189, 463.528 366 C 463.557 349.789, 464.559 343.781, 469.196 332 C 472.119 324.573, 475.108 320.291, 479.406 317.370 C 484.265 314.068, 484.432 310.306, 479.750 309.602 C 477.962 309.334, 472.929 308.592, 468.564 307.954 C 458.603 306.499, 458.110 306.297, 458.727 303.935 C 459.329 301.636, 457.209 301.440, 448.886 303.027 C 440.876 304.554, 397.526 312.191, 364 317.981 C 347.775 320.783, 325.635 324.623, 314.800 326.515 C 303.965 328.406, 290.240 330.415, 284.300 330.979 C 278.360 331.543, 267.425 332.901, 260 333.998 C 237.327 337.345, 234.101 337.065, 191.280 328.022 C 135.850 316.317, 111.891 311.012, 110.083 310.044 C 106.245 307.990, 104.615 304.944, 104.615 299.823 C 104.615 295.463, 105.026 294.374, 107.461 292.280 C 111.132 289.122, 114.176 289.351, 140.500 294.767 C 203.653 307.759, 241.971 314.716, 268.794 318.060 L 286.089 320.216 302.294 317.141 C 322.521 313.303, 355.210 307.601, 400.500 300.011 C 431.290 294.851, 445.403 292.835, 467.180 290.486 C 476.105 289.524, 477.794 284.724, 469.918 282.711 C 464.999 281.453, 462.376 278.569, 457.910 269.509 C 452.683 258.905, 450.633 248.999, 451.377 237.933 C 452.497 221.249, 458.493 208.858, 468.561 202.418 C 474.333 198.725, 475.442 196.343, 471.750 195.563 C 470.512 195.302, 445.650 194.859, 416.500 194.580 C 387.350 194.300, 359.225 193.605, 354 193.034 C 348.775 192.464, 330.143 191.778, 312.596 191.511 C 295.048 191.243, 280.443 190.776, 280.140 190.473 C 279.837 190.170, 307.919 190.277, 342.544 190.711 C 437.245 191.898, 436.446 191.908, 436.766 189.500 C 436.944 188.156, 435.919 186.785, 433.640 185.322 C 426.684 180.855, 422.573 167.338, 422.594 149 C 422.615 130.842, 426.194 119.122, 433.498 113.295 C 439.741 108.313, 437.830 106.716, 424.185 105.513 C 417.394 104.915, 415.976 104.506, 416.445 103.283 C 416.803 102.349, 415.534 100.418, 413.064 98.143 C 408.538 93.974, 407 90.591, 407 84.803 C 407 81.425, 407.613 80.158, 410.620 77.322 C 412.612 75.444, 413.991 73.658, 413.686 73.352 C 413.380 73.047, 408.039 71.920, 401.815 70.847 C 381.924 67.418, 329.289 55.800, 282.500 44.511 L 256.500 38.238 219 37.816 C 198.375 37.583, 163.689 37.642, 141.921 37.947 M 111.594 47.041 C 105.083 48.989, 97.868 59.152, 95.999 69.007 C 93.612 81.590, 101.376 98.299, 110.695 100.638 C 112.092 100.989, 119.820 100.756, 127.868 100.120 C 147.307 98.584, 183.153 96.371, 211.500 94.957 C 224.150 94.325, 234.853 93.476, 235.285 93.069 C 235.717 92.663, 235.099 90.118, 233.912 87.415 C 231.534 81.999, 230.355 70.788, 231.417 63.703 C 231.786 61.247, 233.656 56.632, 235.574 53.447 C 238.225 49.044, 238.754 47.461, 237.781 46.843 C 236.056 45.749, 115.280 45.939, 111.594 47.041 M 268.560 62.250 C 267.157 63.487, 265.894 65.615, 265.754 66.979 L 265.500 69.457 286 72.174 C 297.275 73.668, 323.600 76.738, 344.500 78.997 C 384.004 83.267, 390.541 84.316, 389.378 86.197 C 388.085 88.289, 353.159 86.390, 291.790 80.890 C 277.650 79.623, 265.757 78.910, 265.361 79.306 C 263.901 80.766, 267.997 87.101, 271.260 88.430 C 273.610 89.386, 286.725 90.060, 319 90.881 C 343.475 91.504, 372.374 92.301, 383.220 92.651 L 402.940 93.288 402.330 87.894 C 401.994 84.927, 401.614 82.368, 401.484 82.207 C 401.354 82.046, 392.079 80.376, 380.874 78.495 C 346.759 72.769, 315.455 67.251, 296.010 63.534 C 274.175 59.361, 271.954 59.257, 268.560 62.250 M 282.377 100.736 C 284.509 100.956, 294.762 103.355, 305.162 106.068 C 315.561 108.781, 324.279 111, 324.535 111 C 324.791 111, 325 111.392, 325 111.870 C 325 112.349, 322.975 113.307, 320.500 114 C 318.025 114.693, 316 115.540, 316 115.882 C 316 116.224, 322.637 117.787, 330.750 119.356 C 338.863 120.924, 356.033 124.882, 368.907 128.150 C 381.781 131.419, 392.950 133.850, 393.727 133.551 C 394.521 133.247, 395 132.020, 394.820 130.754 C 394.546 128.824, 392.703 127.904, 382 124.356 C 355.719 115.645, 292.006 99.922, 283.981 100.168 C 279.465 100.307, 279.182 100.407, 282.377 100.736 M 275.813 101.683 C 276.534 101.972, 277.397 101.936, 277.729 101.604 C 278.061 101.272, 277.471 101.036, 276.417 101.079 C 275.252 101.127, 275.015 101.364, 275.813 101.683 M 258.500 102.701 C 256.300 102.902, 235.825 104.840, 213 107.008 C 190.175 109.176, 159.138 112.110, 144.028 113.526 C 124.347 115.372, 115.414 116.610, 112.528 117.891 C 104.403 121.499, 96.214 134.068, 93.926 146.443 C 91.271 160.806, 99.760 180.209, 111.170 185.854 C 115.245 187.870, 116.250 187.889, 190.399 187.366 C 231.704 187.074, 266.102 186.647, 266.837 186.416 C 267.654 186.159, 266.291 184.507, 263.337 182.171 C 250.337 171.893, 243.489 154.603, 245.911 138.172 C 248.089 123.384, 257.676 108.727, 268.239 104.035 L 272.500 102.141 267.500 102.239 C 264.750 102.292, 260.700 102.500, 258.500 102.701 M 412.079 123.263 C 409.055 132.350, 407.037 142.674, 407.017 149.162 C 406.986 159.265, 411.487 178.499, 414.459 180.966 C 415.201 181.582, 416.908 181.810, 418.251 181.473 L 420.693 180.860 418.833 174.180 C 414.247 157.707, 414.301 139.849, 418.982 124.809 C 421.060 118.134, 420.690 117.046, 416.332 117.015 C 414.555 117.003, 413.786 118.133, 412.079 123.263 M 297.558 132.492 C 289.851 135.238, 285.388 140.784, 289.589 142.396 C 294.605 144.321, 379.211 153.259, 387.994 152.793 C 392.836 152.535, 393.539 152.229, 393.819 150.252 C 394.049 148.634, 393.464 147.747, 391.735 147.089 C 390.413 146.587, 372.459 142.761, 351.836 138.588 C 312.832 130.695, 305.055 129.821, 297.558 132.492 M 289 153.647 C 289 158.747, 296.976 164.253, 307.636 166.511 C 311.411 167.311, 319.450 168.010, 325.500 168.064 C 336.091 168.159, 336.370 168.217, 333 169.612 C 317.068 176.206, 314.205 177.599, 314.983 178.380 C 315.465 178.864, 323.429 179.037, 332.680 178.766 C 346.092 178.372, 353.654 177.529, 370 174.603 C 381.275 172.585, 391.738 170.444, 393.250 169.845 C 396.236 168.664, 397.021 165.092, 394.715 163.178 C 394.008 162.592, 384.220 161.415, 372.965 160.563 C 336.915 157.834, 326.808 156.888, 312 154.854 C 286.748 151.386, 289 151.505, 289 153.647 M 187.500 200.538 C 173.200 202.382, 154.300 204.604, 145.500 205.475 C 112.380 208.752, 110.821 209.025, 107.771 212.075 C 106.107 213.739, 105 215.928, 105 217.555 C 105 221.616, 108.607 226.715, 112.355 227.952 C 116.414 229.292, 119.763 228.859, 170 220.514 C 191.175 216.997, 212.297 213.578, 216.938 212.917 C 227.174 211.459, 230.625 208.944, 229.609 203.684 C 228.102 195.881, 225.249 195.668, 187.500 200.538 M 271 207.565 C 250.070 215.490, 206.930 225.765, 164.500 232.931 C 147.008 235.886, 118.247 240, 115.085 240 C 113.584 240, 110.589 238.663, 108.428 237.028 C 103.203 233.075, 100.500 233.191, 96.394 237.544 C 89.903 244.426, 88.062 258.296, 92.402 267.617 C 95.758 274.824, 100.234 278, 107.035 278 C 109.976 278, 120.283 279.551, 129.941 281.448 C 146.524 284.703, 166.964 288.411, 224 298.508 C 237.475 300.894, 256.499 304.293, 266.276 306.063 C 276.054 307.833, 284.289 309.045, 284.577 308.756 C 284.865 308.468, 281.793 304.881, 277.750 300.786 C 269.227 292.151, 262.926 281.091, 260.425 270.376 C 258.210 260.886, 258.902 243.941, 261.879 234.778 C 264.646 226.262, 271.952 215.381, 278.832 209.533 L 284.163 205 280.832 205.052 C 278.999 205.081, 274.575 206.212, 271 207.565 M 347 217.053 C 322.950 220.057, 303.392 230.061, 301.463 240.347 C 300.168 247.248, 301.463 247.388, 317.338 242.054 C 329.250 238.052, 343.132 234.922, 357.322 233.038 C 367.310 231.713, 399.816 231.709, 411.368 233.032 C 421.307 234.171, 423 233.584, 423 228.999 C 423 225.795, 421.662 225.109, 409.500 222.080 C 389.793 217.172, 363.186 215.032, 347 217.053 M 374.500 242.606 C 362.332 243.757, 350.338 245.384, 341.283 247.111 C 329.943 249.274, 302.974 256.653, 301.657 257.953 C 300.185 259.407, 302.923 262.919, 307.283 265.169 C 310.233 266.692, 313.921 267.478, 319.557 267.788 C 326.688 268.180, 329.330 267.759, 342.557 264.130 C 366.277 257.622, 391.185 253.045, 411.500 251.464 C 422.026 250.645, 423 250.314, 423 247.555 C 423 242.934, 421.174 242.538, 399.113 242.377 C 387.776 242.295, 376.700 242.398, 374.500 242.606 M 408 263.560 C 392.445 267.146, 377.034 271.647, 363.190 276.647 C 348.832 281.834, 333 288.911, 333 290.142 C 333 291.300, 340.064 291.212, 348 289.956 C 353.046 289.158, 392.192 277.740, 423.750 267.862 C 426.967 266.855, 427.570 265.649, 426.393 262.582 C 425.549 260.381, 420.663 260.641, 408 263.560 M 449.097 332.423 C 441.229 357.896, 441.409 381.690, 449.639 403.876 L 451.262 408.253 456.736 407.688 C 459.747 407.377, 462.387 406.946, 462.603 406.730 C 462.819 406.514, 461.877 403.047, 460.509 399.026 C 456.642 387.658, 455 378.007, 455 366.653 C 455 354.514, 457.939 337.338, 461.743 327.250 C 462.085 326.343, 460.685 326, 456.647 326 L 451.080 326 449.097 332.423 M 54.852 337.016 C 47.618 340.838, 40.302 351.431, 37.420 362.256 C 32.247 381.685, 42.266 408.039, 58.425 417.509 C 64.255 420.926, 65.236 421.121, 189.500 443.552 C 199.950 445.439, 218.175 448.799, 230 451.019 C 267.939 458.143, 279.328 460, 284.975 459.984 C 288.014 459.974, 296.575 458.608, 304 456.947 C 311.425 455.286, 332.125 450.771, 350 446.914 C 367.875 443.057, 392.175 437.626, 404 434.845 C 432.187 428.215, 433.057 427.615, 409.500 431.055 C 385.547 434.553, 345.045 442.844, 306.682 452.103 C 288.977 456.376, 285.033 457.023, 280.304 456.432 C 263.498 454.332, 245.263 436.980, 238.866 417 C 236.185 408.626, 235.940 393.319, 238.338 384 C 241.794 370.568, 251.267 355.521, 259.940 349.687 C 261.281 348.784, 262.181 347.853, 261.940 347.618 C 261.698 347.382, 234.500 346.685, 201.500 346.069 C 168.500 345.454, 135.200 344.492, 127.500 343.934 C 112.229 342.825, 83.035 338.816, 73.500 336.517 C 65.328 334.548, 59.214 334.711, 54.852 337.016 M 358.500 350.625 C 325.884 354.198, 297.774 367.010, 293.856 380.088 C 292.126 385.861, 293.598 387.008, 299.781 384.702 C 335.513 371.374, 365.898 365.397, 404.287 364.145 C 425.372 363.458, 425.950 363.301, 425.985 358.285 C 426.005 355.278, 423.801 354.306, 412.856 352.495 C 403.730 350.985, 366.809 349.715, 358.500 350.625 M 398 375.129 C 375.749 376.930, 354.331 380.476, 331.500 386.138 C 316.110 389.955, 294.253 396.782, 293.494 398.010 C 292.419 399.749, 295.019 402.969, 299.235 405.120 C 302.074 406.568, 305.970 407.397, 311.452 407.719 C 319.038 408.165, 320.418 407.897, 335.500 403.042 C 354.327 396.983, 380.962 390.240, 402.852 385.991 C 424.543 381.780, 424.446 381.810, 424.827 379.162 C 425.603 373.768, 421.822 373.199, 398 375.129 M 408.500 398.470 C 378.916 407.114, 355.113 415.905, 337.941 424.530 C 324.979 431.039, 325.800 432.210, 341.419 429.486 C 356.470 426.861, 424.090 403.768, 427.385 400.127 C 428.804 398.559, 428.808 398.171, 427.423 396.194 C 426.578 394.987, 425.350 394.020, 424.693 394.044 C 424.037 394.068, 416.750 396.060, 408.500 398.470" stroke="none" fill="black" fill-rule="evenodd"/>
</svg>