<?xml version="1.0" encoding="utf-8"?>
<!-- Generator: Adobe Illustrator 28.2.0, SVG Export Plug-In . SVG Version: 6.00 Build 0)  -->
<svg version="1.1" id="Layer_1" xmlns="http://www.w3.org/2000/svg" xmlns:xlink="http://www.w3.org/1999/xlink" x="0px" y="0px"
	 viewBox="0 0 439 349" style="enable-background:new 0 0 439 349;" xml:space="preserve">
<style type="text/css">
	.st0{fill:#F5EFCA;}
	.st1{fill:#9FC9D3;}
	.st2{fill:#B49ACA;}
	.st3{fill:#67B9CC;}
	.st4{fill:#F39B1D;}
	.st5{fill:#3B97D3;}
	.st6{fill:#7D6599;}
	.st7{fill:#E64C3C;}
</style>
<g>
	<path class="st0" d="M117.9,300.6c-0.5-0.1-0.9-0.5-0.9-1c0-0.6,1.7-0.7,10-0.7c8.2,0,10,0.1,10,0.7c0,0.4-0.4,0.8-0.9,0.9
		C134.9,300.9,119,301,117.9,300.6L117.9,300.6z"/>
	<path class="st0" d="M285.9,300.6c-0.5-0.1-0.9-0.5-0.9-1c0-0.6,1.6-0.7,10-0.7c8.2,0,10,0.1,10,0.7c0,0.4-0.5,0.8-1.1,1
		C302.6,301,287.2,301,285.9,300.6z"/>
	<path class="st0" d="M200.5,284c-15.6-1.4-27.2-5.5-29.8-10.5c-0.6-1.1-0.8-2.5-0.6-4.5c0.2-2.4,0.5-3.2,1.7-4.5
		c5.1-5.3,17.3-8.6,34.7-9.2c22.9-0.9,42.8,4.2,45.4,11.6c1.1,3.1,0.4,6.3-1.8,8.5c-3.6,3.5-13.2,6.9-23.6,8.1
		C220.3,284.2,206.5,284.5,200.5,284L200.5,284z"/>
	<path class="st0" d="M121.8,177.8l-2.5-0.6l3.2-0.1l3.2-0.1l-3.6-0.9c-6.1-1.6-14.1-5.8-16.9-8.9l-0.9-1.1h1.8c1.3,0,2.1,0.3,2.4,1
		c0.3,0.6,0.9,1,1.2,1s0.7,0.2,0.7,0.5c0,0.3,0.3,0.5,0.8,0.5s0.8,0.1,0.8,0.4c0,0.2,1.1,0.8,2.3,1.3c1.2,0.5,2.5,1.2,2.8,1.5
		c0.7,0.6,8.7,2.8,10.3,2.8c0.8,0,1,0.3,1,1.8c0,1.8,0,1.8-2.1,1.7C125.2,178.4,123.2,178.1,121.8,177.8z"/>
	<path class="st0" d="M313.5,176.8c0-1.5,0.2-1.8,1.6-2.4c1-0.3,2.1-1.2,2.6-2c0.5-0.8,1.1-1.4,1.4-1.4c0.2,0,0.4-0.4,0.4-1
		c0-0.6,0.4-1,1-1c0.5,0,1,0.4,1,0.8c0,1.6-2,4.7-3.9,5.8l-1.9,1.2l1.6,0.1c1.5,0.1,1.6,0.2,0.8,0.9c-0.5,0.4-1.8,0.8-2.8,0.8
		C313.5,178.5,313.5,178.4,313.5,176.8z"/>
	<path class="st0" d="M319.3,166.2c-0.4-1.2-2.4-3.3-4.5-4.6C314,161.1,293,161,222,161c-60.8,0-92.8-0.2-95-0.6
		c-12.7-2-20.6-13.6-18.6-27.1c1.5-10.5,9-18.1,19.1-19.3c2.3-0.3,39.3-0.5,94.9-0.5h91.1l2.2-1.2c1.6-0.8,2.4-1.7,3.1-3.2
		c1-2.1,2.7-3,2.7-1.4c0,2.8-3.1,6.3-6.5,7.2c-1.8,0.4-2,0.7-2.1,2.3c-0.1,0.9-0.2,10.7-0.3,21.5l-0.1,19.7l1.4,0.6
		c3.9,1.5,4.6,2,5.9,3.6c0.7,0.9,1.5,2.4,1.6,3.2c0.3,1.4,0.2,1.6-0.7,1.6C320,167.5,319.5,167.1,319.3,166.2L319.3,166.2z"/>
	<path class="st0" d="M101.4,163.1c-3.9-4.1-7.9-12.6-8.9-18.7c-0.7-4.3-0.7-4.4,0.4-4.4c0.8,0,1,0.4,1,1.3c0,1.9,2.1,9.9,2.8,10.6
		c0.3,0.4,1,1.6,1.5,2.9c0.6,1.2,1.1,2.3,1.3,2.3c0.2,0,0.3,0.4,0.3,0.8s0.2,0.8,0.5,0.8c0.3,0,0.5,0.2,0.5,0.6s0.4,0.9,1.1,1.4
		c0.8,0.6,1,1.2,0.8,2.5l-0.2,1.6L101.4,163.1L101.4,163.1z"/>
	<path class="st0" d="M92,133.4c0-2.1,2-9.4,3.4-12.6c1.6-3.5,4.8-8.5,6.5-10l1.1-0.9v1.8c0,1.3-0.3,2.1-1,2.4c-0.6,0.3-1,0.9-1,1.2
		s-0.2,0.7-0.5,0.7c-0.2,0-0.5,0.3-0.5,0.7c0,0.4-0.2,0.8-0.4,0.9c-1.3,0.6-5.6,12.5-5.6,15.6c0,0.9-0.2,1.3-1,1.3
		C92.3,134.5,92,134.1,92,133.4z"/>
	<path class="st0" d="M105.1,107.7c2.5-3,10.8-7.5,16.8-9.1l3.4-0.9l-2.8-0.2l-2.8-0.2l3.3-0.7c1.8-0.3,4.2-0.6,5.4-0.6
		c2.1,0,2.1,0.1,2.1,1.8s-0.1,1.8-1.9,1.8c-3,0-7.8,1.3-12.3,3.3c-2.2,1.1-4.2,2.1-4.2,2.2c-0.1,0.2-0.5,0.4-0.9,0.4
		s-0.7,0.2-0.7,0.5c0,0.3-0.4,0.5-0.9,0.5c-0.5,0-1.1,0.4-1.2,1c-0.2,0.8-0.7,1-2.1,1C104.6,108.5,104.5,108.4,105.1,107.7
		L105.1,107.7z"/>
	<path class="st0" d="M319,104.2c-0.8-2.2-2-3.4-4.4-4.2c-1.5-0.5-1.7-0.8-1.7-2.2c0-1.6,0.1-1.7,1.6-1.7c0.9,0.1,2.3,0.3,3.1,0.8
		l1.5,0.7l-1.8,0.1c-1.5,0.1-1.6,0.2-0.9,0.7c2.6,1.7,4.9,4.8,4.9,6.8C321.5,106.8,319.8,106.2,319,104.2L319,104.2z"/>
</g>
<g>
	<path class="st1" d="M175.8,221.2l-1.3-1.4v-11.9c0-11.9,0-11.9,1.2-13.3l1.2-1.4h51.8h51.8l1.3,1.2l1.3,1.2v12.2V220l-1.2,1.2
		l-1.2,1.2h-51.7h-51.7L175.8,221.2L175.8,221.2z"/>
	<path class="st1" d="M123.5,99.2c0-0.2,0.4-0.7,0.9-1c0.8-0.7,0.8-0.7,0-0.7c-0.5,0-0.9-0.3-0.9-0.8c0-0.6,0.6-0.8,2-0.8
		c2.1,0,2.9,1.2,1.2,1.7c-0.8,0.2-0.8,0.2,0,0.3c0.4,0,0.8,0.4,0.8,0.8c0,0.6-0.6,0.8-2,0.8C124.4,99.5,123.5,99.4,123.5,99.2z"/>
	<path class="st1" d="M314,97.8c0-1.7,0.1-1.8,1.8-1.8c1.2,0,1.8,0.2,1.8,0.8c0,0.4-0.4,0.8-0.8,0.8c-1,0-1,0.5,0.1,1.3
		c0.8,0.6,0.6,0.7-1,0.7C314,99.5,314,99.4,314,97.8z"/>
	<path class="st1" d="M96.3,96.3c-3.2-1.9-5.8-7.3-3.4-7.3c0.6,0,1.2,0.7,1.6,1.8c0.8,2.2,1.8,3.3,3.9,4.2c1,0.4,1.6,1,1.6,1.6
		C100,97.9,98.7,97.8,96.3,96.3z"/>
	<path class="st1" d="M322,96.6c0-0.9,2.4-2.1,4.1-2.1c0.5,0,0.9-0.4,0.9-1.2c0-0.8,0.3-1.2,0.8-1.2c0.5,0,0.8-0.6,0.8-2
		c0-1.7,0.1-2,1-2c1.3,0,1.3,1.6,0,4.2c-1,2.3-2.7,3.9-4.7,4.7C322.8,97.8,322,97.6,322,96.6L322,96.6z"/>
	<path class="st1" d="M328.3,61.4c-0.2-0.9-0.5-2.4-0.6-3.2c-0.2-1.3-0.5-1.7-1.5-1.7c-1.8,0-3.7-1-3.7-2.1c0-2.7,6.1,1.2,7.5,4.8
		c0.9,2.2,0.7,3.8-0.4,3.8C328.9,63,328.5,62.5,328.3,61.4z"/>
	<path class="st1" d="M92,60.9c0-2,2.2-5,4.2-6.2c2.5-1.4,3.8-1.5,3.8-0.2c0,0.8-0.3,1-1.5,1c-0.9,0-1.5,0.2-1.5,0.7s-0.4,1.1-1,1.6
		s-1.2,1.7-1.6,2.5C93.7,62.3,92,62.7,92,60.9z"/>
	<path class="st1" d="M126.5,54.3c0-1.1,2.1-1.3,10.9-1.2c9,0.1,10.1,0.2,10.1,1.2c0,0.6-1.9,0.7-10.5,0.7
		C128.4,55,126.5,54.9,126.5,54.3z"/>
	<path class="st1" d="M243,54.3c0-0.8,1.2-1.2,2.6-0.9c1.6,0.4,0.9,1.6-0.9,1.6C243.6,55,243,54.7,243,54.3z"/>
	<path class="st1" d="M274,54.3c0-1.1,2-1.3,11.9-1.3c10.1,0,11.6,0.2,11.6,1.3c0,0.6-2,0.7-11.8,0.7S274,54.9,274,54.3z"/>
</g>
<g>
	<path class="st2" d="M324.5,298.8c0-1.1,0.2-1.2,1.9-1.2l1.9,0l-1.4,1.2C325.1,300.4,324.5,300.3,324.5,298.8z"/>
	<path class="st2" d="M328.5,293.2c0-1.4,0.2-1.8,1-1.8c1,0,1.2,0.5,0.7,2.4C329.7,295.7,328.5,295.2,328.5,293.2z"/>
	<path class="st2" d="M95,241.1c0-0.4,0.8-0.9,3.2-2c0.2-0.1,0.3,0.4,0.3,1.1c0,1.1-0.2,1.3-1.8,1.3C95.8,241.5,95,241.3,95,241.1
		L95,241.1z"/>
	<path class="st2" d="M99,239.8c0-1.1,1.8-1.3,9.6-1.1l7.3,0.1l-1.9-1.1c-1-0.6-2.4-1.9-3.1-3l-1.2-1.9l-0.2-23.8
		c-0.2-24.7-0.1-26.1,1.9-28.7c2.2-2.7,7.4-4.4,7.4-2.4c0,0.7-0.5,1.1-1.8,1.3c-1.8,0.3-3.6,1.9-5.1,4.4c-0.8,1.4-0.9,46.2-0.1,48.6
		c0.6,1.6,3.5,4,5.6,4.5c1.2,0.3,1.3,0.6,1.3,2.1v1.7h-10C100.8,240.5,99,240.4,99,239.8L99,239.8z"/>
	<path class="st2" d="M135,238.8V237h4.2h4.2v-30.8v-30.8h6h6v30.8V237h65.8H287v1.8v1.8h-76h-76V238.8z"/>
	<path class="st2" d="M302.5,208v-32.5h5.9h5.9v30.6v30.6l12.2,0.1c7.6,0.1,13-0.1,14.1-0.4c2.1-0.6,4.8-3.4,5.2-5.6
		c0.2-1,0.6-1.4,1.2-1.4c1.2,0,1.2,1.9,0,4.4c-2.2,4.3-4.4,5.1-14.8,5.1c-7.2,0.1-7.9,0.1-6.8,0.8s-0.1,0.7-10.9,0.8h-12.1
		L302.5,208L302.5,208z"/>
	<path class="st2" d="M277.5,221.8c0-0.4,0.4-0.8,0.8-0.8c0.5,0,1.4-0.6,2-1.2c1.2-1.2,1.2-1.2,1.2-11.9c0-10.4,0-10.7-1.1-11.7
		c-0.6-0.6-1.8-1.1-2.5-1.4c-2.1-0.5-1.8-1.8,0.4-1.8c1,0,1.8,0.2,1.8,0.4s0.5,0.6,1.1,0.6c0.7,0.1,1.1,0.6,1.2,1.3
		c0.1,0.6,0.4,1.1,0.6,1.1s0.5,4.8,0.5,11.5v11.5h-1.2c-1,0-1.2,0.2-1.2,1.5c0,1.4-0.1,1.5-1.8,1.5
		C278,222.5,277.5,222.2,277.5,221.8z"/>
	<path class="st2" d="M175.6,221.2c-0.7-0.8-0.9-3.8-0.2-3.8c0.2,0,0.7,0.6,1.1,1.2s1.2,1.5,1.9,1.9c0.6,0.4,1.2,0.8,1.2,1.1
		C179.5,222.3,176.3,222,175.6,221.2z"/>
	<path class="st2" d="M174.5,197.2c0-0.9,0.2-1.8,0.5-1.8c0.3,0,0.5-0.4,0.5-0.8s0.4-0.8,1-0.8s1-0.2,1-0.5c0-0.2,0.9-0.5,2-0.5
		c2.6,0,2.8,1.3,0.2,1.8c-1.8,0.3-3.8,2.2-3.8,3.5c0,0.4-0.4,0.7-0.8,0.7C174.8,199,174.5,198.4,174.5,197.2z"/>
	<path class="st2" d="M346,185.1c0-0.5-0.4-1.4-0.8-1.9c-0.4-0.5-0.8-1.4-0.8-1.8c0-0.5-0.4-0.9-0.9-0.9c-0.5,0-1.4-0.4-1.9-0.8
		c-0.5-0.4-1.4-0.8-1.9-0.8c-0.5,0-0.9-0.4-0.9-1c0-1.8,3.6-1,6.2,1.4c2.6,2.4,3.8,6.6,1.8,6.6C346.4,186,346,185.7,346,185.1
		L346,185.1z"/>
</g>
<g>
	<path class="st3" d="M126,98.6c0-0.3,0.8-0.6,1.7-0.7l1.6-0.2l-1.6-0.1l-1.7-0.1v-22v-22h10.2h10.2v22.8V99h-10.2
		C130.2,99,126,98.8,126,98.6z"/>
	<path class="st3" d="M276,76.2V53.5h10.2h10.2v22.8V99h-10.2H276V76.2z"/>
	<path class="st3" d="M97.9,96.9c-1.4-0.8-1.1-1.4,0.8-1.4c1.4,0,1.8,0.2,1.8,1C100.5,97.6,99.3,97.8,97.9,96.9z"/>
	<path class="st3" d="M325,95.2c0-1.1,0.2-1.2,1.9-1.2l1.9,0.1l-1.4,1.2C325.6,96.8,325,96.8,325,95.2z"/>
	<path class="st3" d="M328.2,76.4c0-13.2-0.1-17.1-0.6-17.2c-0.4-0.2-0.6-1-0.6-2c0-1.5,0.1-1.7,0.8-1.1c0.4,0.3,1.1,1.3,1.6,2.2
		c0.8,1.3,0.9,3.5,0.9,17.3c0,11.9-0.1,16-0.6,16.9c-0.4,0.6-0.8,1.1-1,1.1S328.2,85.8,328.2,76.4z"/>
	<path class="st3" d="M95.1,55.7c0.8-0.9,3.5-2.2,4.7-2.2c0.4,0,0.8,0.4,0.8,0.9c0,1-2.4,2.1-4.7,2.1C94.6,56.5,94.5,56.4,95.1,55.7
		z"/>
	<path class="st3" d="M322,54.5c0-1.1,1-1.3,2.5-0.5c1.5,0.8,1.1,1.5-0.8,1.5C322.4,55.5,322,55.3,322,54.5z"/>
</g>
<g>
	<path class="st4" d="M117.1,268.9l0.2-31.6l10.2-0.1l10.1-0.1v31.8v31.8h-10.2H117L117.1,268.9z"/>
	<path class="st4" d="M284.5,269.8c0-24.2,0.1-30.8,0.6-30.8c0.5,0,0.4-0.1-0.1-0.4c-1.9-1.2,0.3-1.6,9.5-1.6c9.1,0,9.5,0.1,9.5,1
		c0,0.6,0.4,1,0.8,1c0.6,0,0.8,3.8,0.8,30.8v30.8H295h-10.5V269.8z"/>
	<path class="st4" d="M203.5,283.5c0-0.8,0.4-1,1.4-1c2.1,0,3.6,0.5,3.6,1.3c0,0.5-0.7,0.7-2.5,0.7
		C203.9,284.5,203.5,284.4,203.5,283.5z"/>
	<path class="st4" d="M213.5,283.8c0-0.8,1.5-1.3,3.6-1.3c1,0,1.4,0.2,1.4,1c0,0.9-0.4,1-2.5,1C214.2,284.5,213.5,284.3,213.5,283.8
		z"/>
	<path class="st4" d="M192.6,283.1c-4.1-0.6-4.6-0.9-4.6-1.8c0-0.9,0.2-1,1.6-0.7c0.9,0.2,3.2,0.5,5.1,0.9c1.9,0.3,4.2,0.6,5.1,0.8
		c0.9,0.1,1.6,0.5,1.6,1C201.5,284.2,198.9,284.1,192.6,283.1z"/>
	<path class="st4" d="M221,283.3c0-0.4,0.5-0.8,1.1-1c2.1-0.5,2.9-0.4,2.9,0.7c0,0.9-0.4,1-2,1C221.6,284,221,283.8,221,283.3z"/>
	<path class="st4" d="M225.5,282.9c0-0.5,0.6-0.9,1.9-1.1c1-0.2,3.7-0.8,6-1.3c5.1-1.1,5.1-1.1,5.1,0c0,0.8-0.8,1.1-3.8,1.8
		c-2.1,0.5-4.9,1-6.5,1.1C225.9,283.6,225.5,283.5,225.5,282.9z"/>
	<path class="st4" d="M184,280.5c0-1,0.5-1.2,2.4-0.7c1.8,0.5,1.4,1.7-0.6,1.7C184.4,281.5,184,281.3,184,280.5z"/>
	<path class="st4" d="M239.5,279.5c0-0.2,1.6-1.2,3.6-2.1c5.8-2.7,8.5-6.1,7.3-9.2c-0.4-1-0.2-1.1,0.8-1.1c1.2,0,1.2,0.1,1.2,2.8
		c0,1.5-0.2,2.8-0.5,2.8c-0.2,0-0.5,0.5-0.5,1c0,0.6-0.4,1-1,1s-1,0.4-1,1c0,0.8-0.4,1-1.5,1s-1.5,0.2-1.5,1c0,1-0.9,1.5-2.6,1.5
		c-0.5,0-0.9,0.2-0.9,0.5c0,0.3-0.8,0.5-1.8,0.5S239.5,279.8,239.5,279.5z"/>
	<path class="st4" d="M176.6,278.6c-0.4-0.1-0.6-0.5-0.6-1c0-0.4-0.5-0.7-1.2-0.7c-1.1,0-1.2-0.2-1.2-1.5c0-1.4-0.1-1.5-1.5-1.5
		c-1.4,0-1.5-0.1-1.5-1.8c0-2.1,0.7-2.2,1.8-0.3c0.9,1.7,3,3.5,6.1,5c1.1,0.6,2.1,1.3,2.1,1.5C180.5,279,177.8,279.1,176.6,278.6
		L176.6,278.6z"/>
	<path class="st4" d="M170,268.2c0-1.5,0.1-1.8,1.2-1.8c1.1,0,1.2,0.1,0.6,1.8c-0.3,1-0.8,1.8-1.2,1.8S170,269.4,170,268.2z"/>
	<path class="st4" d="M246.6,264c-3.2-2.3-9.1-4.3-17.2-6c-1.9-0.4-2.9-0.8-2.9-1.3c0-0.9,1.8-0.9,7.2,0.3c6.4,1.5,10.8,3,10.8,3.8
		c0,0.5,0.6,0.7,1.5,0.7c0.9,0,1.5,0.2,1.5,0.5c0,0.3,0.4,0.5,0.8,0.5c0.5,0,0.8,0.5,0.8,1.5c0,0.9-0.1,1.5-0.1,1.5
		C248.8,265.5,247.8,264.8,246.6,264z"/>
	<path class="st4" d="M174,263.5c0-1.4,0.1-1.5,1.8-1.5c2.2,0,2.2,0.5,0,1.9L174,265V263.5z"/>
	<path class="st4" d="M179,260.8c0-1.1,1.1-1.8,3.4-1.8c0.6,0,1.1-0.2,1.1-0.5c0-0.2,0.8-0.5,1.8-0.5c3,0,1.9,1.2-2.2,2.5l-4,1.4
		V260.8z"/>
	<path class="st4" d="M187.5,258c0-0.8,0.4-1,1.8-1c2,0,2.4,1.2,0.6,1.7C188,259.2,187.5,259.1,187.5,258z"/>
	<path class="st4" d="M192.5,257c0-0.8,0.3-1.1,1.1-1.1c0.6,0,2.3-0.1,3.8-0.3c2.1-0.3,2.6-0.2,2.6,0.5c0,0.8-0.8,1-5.1,1.6
		C192.7,258.1,192.5,258,192.5,257z"/>
	<path class="st4" d="M223.4,257.1c-1.6-0.4-1-1.6,0.9-1.6c1.4,0,1.8,0.2,1.8,1C226,257.5,225.3,257.6,223.4,257.1z"/>
	<path class="st4" d="M201,256c0-0.9,0.4-1,2.8-1c2,0,2.8,0.2,2.8,0.7c0,0.8-1.5,1.3-3.9,1.3C201.3,257,201,256.8,201,256z"/>
	<path class="st4" d="M216.9,256.6c-0.5-0.1-0.9-0.5-0.9-0.9c0-0.5,0.6-0.7,2.5-0.7c2.1,0,2.5,0.1,2.5,1c0,0.8-0.3,1-1.6,1
		C218.5,256.9,217.3,256.8,216.9,256.6L216.9,256.6z"/>
	<path class="st4" d="M123,177.8l-2.8-0.6l3.5-0.3c1.9-0.1,2.9-0.3,2.2-0.4c-2.7-0.2-8.9-2.2-12.5-4.1c-9.8-5.1-17-14.1-20.1-24.8
		c-0.9-3.2-1.1-5.2-1.1-10.4c0-7.6,0.8-10.9,3.9-17.5c3.9-8.2,9.8-14,18-18c6.6-3.2,9.4-3.8,20.9-4.1c7.9-0.2,9.9-0.4,9.9-0.9
		c0-0.6,10.6-0.7,66.2-0.7c58.5,0,66.2,0.1,66.2,0.8s1.3,0.8,8.8,0.8s8.8-0.1,8.8-0.8s1.5-0.8,10.4-0.8c7.6,0.1,10.8,0.2,11.9,0.8
		l1.5,0.7l-2.2,0.1l-2.2,0.1l2,0.9c2.4,1.1,3.5,2.2,4.5,4.7c1.6,3.9,0.2,8.4-3.5,10.6l-2.1,1.2h-91.2c-55.6,0-92.7,0.2-94.9,0.5
		c-12.2,1.6-21,13.2-19,25c1.7,9.7,8.9,16.9,18.5,18.4c2.1,0.4,34.1,0.6,94.9,0.6c101.1,0,92.9-0.2,96,3.2
		c3.6,4.1,2.3,10.6-2.8,13.3l-1.9,0.9l2,0.1c2,0.1,2,0.1,0.8,0.8c-1.8,1-5.2,1-4.8,0c0.2-0.6-0.5-0.8-4.2-0.8
		c-3.6,0-4.5,0.1-4.5,0.8c0,0.6-8.6,0.8-75,0.8s-75-0.1-75-0.8c0-0.6-0.9-0.8-4.5-0.8s-4.5,0.1-4.5,0.8c0,0.6-1.4,0.8-9.6,0.7
		C130.1,178.4,124.5,178.1,123,177.8z"/>
	<path class="st4" d="M121.8,97c2.2-0.6,5.8-0.6,5.8,0c0,0.3-1.5,0.5-3.6,0.4C121.2,97.4,120.6,97.3,121.8,97z"/>
</g>
<g>
	<path class="st5" d="M280.9,219.1c0.9-1.2,1-2.4,0.9-11.5c0-9.4,0-10.1,0.9-10.1s0.9,0.6,0.9,8.9c0,4.9-0.1,10.1-0.3,11.5
		c-0.3,2.4-0.4,2.6-1.8,2.6H280L280.9,219.1z"/>
	<path class="st5" d="M276.9,194.6c-1.7-0.4-1-1.6,0.9-1.6c1.4,0,1.8,0.2,1.8,0.9C279.5,194.9,279,195.1,276.9,194.6L276.9,194.6z"
		/>
	<path class="st5" d="M97.2,96.6c-2.4-1.1-3.4-2.2-4.5-4.7c-1.1-2.7-1.1-30,0-32.7c1.1-2.5,2.1-3.6,4.5-4.7c1.8-0.8,3.5-1,16.2-1
		h14.1v22v22h-14.1C100.8,97.5,99.1,97.4,97.2,96.6z"/>
	<path class="st5" d="M145,75.5v-22h66.2h66.2v22v22h-66.2H145V75.5z"/>
	<path class="st5" d="M295,75.5v-22h14.1c15.8,0,17,0.2,19.4,3.5l1.2,1.7v16.8c0,16.6,0,16.8-1.1,18.3c-0.6,0.8-2.1,2.1-3.2,2.6
		c-2,1-3,1.1-16.2,1.1H295V75.5z"/>
</g>
<g>
	<path class="st6" d="M113.8,239.5c-0.8-0.3-0.4-0.4,1.5-0.5c2.4-0.1,2.4-0.1,1-0.6c-0.8-0.3-2.2-1.1-3.2-1.8
		c-3.2-2.4-3.1-1.6-3.1-28.6c0-26.6-0.1-25.9,2.8-28.6c2.2-2.1,4.4-2.4,18.8-2.4H145v30.8v30.7l-3.9,0.2l-3.9,0.1l4.6,0.1
		c6.5,0.1,5.9,1.1-0.6,1.1c-4,0-5.2-0.1-5.2-0.6c0-1.1-16.9-1.1-17.3-0.1C118.3,240.1,115.4,240.2,113.8,239.5z"/>
	<path class="st6" d="M152.5,239.5c0-0.2,1.2-0.6,2.6-0.6c2.1-0.1,2.2-0.1,0.8-0.2l-1.9-0.2v-30.8V177h75h75v31
		c0,27.2,0.1,31,0.8,31c0.4,0,0.8,0.2,0.8,0.5c0,0.7-1.4,0.6-1.6-0.1c-0.4-0.9-17.4-1-17.8-0.1c-0.2,0.6-11.4,0.7-66.9,0.7
		C175,240,152.5,239.8,152.5,239.5L152.5,239.5z M172.9,238.6c-2.6-0.1-7.1-0.1-10,0c-2.9,0.1-0.6,0.1,4.9,0.1
		S175.6,238.7,172.9,238.6z M195.9,238.6c-3.2-0.1-8.6-0.1-12,0c-3.4,0.1-0.8,0.1,5.9,0.1S199.1,238.7,195.9,238.6z M210.9,238.6
		c-1.6-0.1-4.3-0.1-6,0c-1.8,0.1-0.4,0.1,2.9,0.1S212.4,238.7,210.9,238.6z M222.9,238.6c-1.6-0.1-4.3-0.1-6,0
		c-1.8,0.1-0.4,0.1,2.9,0.1S224.4,238.7,222.9,238.6z M231.4,238.6c-1.1-0.1-2.8-0.1-3.8,0c-1.1,0.1-0.2,0.2,1.9,0.2
		S232.4,238.7,231.4,238.6z M236.6,238.6c-0.6-0.1-1.6-0.1-2.2,0c-0.6,0.1-0.1,0.2,1.1,0.2S237.2,238.7,236.6,238.6z M280.7,219.4
		l1.3-1.6v-9.6c0-6.4-0.2-10.1-0.6-11c-1.3-2.9,0.9-2.8-52.6-2.8c-36.6,0-49.6,0.1-50.4,0.6c-2.2,1.1-2.3,1.6-2.4,12.8v10.6l1.2,1.2
		l1.2,1.2h50.5h50.4L280.7,219.4L280.7,219.4z"/>
	<path class="st6" d="M311.2,239.5c-0.2-0.3,0.5-0.5,1.9-0.6c1.7-0.1,1.9-0.1,0.9-0.4l-1.2-0.4v-30.4v-30.5h14.5
		c14.2,0,14.5,0,16.4,1.1c1,0.6,2.4,2,3,3l1.1,1.9l0.1,23.4c0.1,15.4,0,24.1-0.4,25.4c-0.6,2.4-2.7,4.9-4.9,5.8
		c-1.1,0.5-4.4,0.7-11.2,0.8c-5.9,0.1-9,0.2-8,0.4c3.2,0.8,2.1,1-4.8,1C314.5,240,311.5,239.8,311.2,239.5z"/>
</g>
<g>
	<path class="st7" d="M97.2,299.8c-1.8-0.9-4-3.1-4.7-5c-0.3-1-0.6-9.6-0.6-25.3v-23.9l1.2-2.2c2.1-3.9,3.4-4.4,15.3-4.6l10.2-0.1
		l-0.2,30.9l-0.1,30.9h-9.9C101.5,300.5,98.3,300.2,97.2,299.8z"/>
	<path class="st7" d="M136,269.6v-30.9h75.1l75.1-0.1l-0.1,30.9l-0.1,30.9h-75h-75V269.6z M220.8,282.4c15.3-1.3,27.1-5.6,29.6-10.6
		c3-6.3-8.1-12.5-26.4-14.5c-20.9-2.4-44,1.5-50.6,8.6c-1.9,2-2.1,2.4-1.8,4.2c0.5,3.6,4.1,6.4,11.7,8.9
		C193.6,282.4,207,283.7,220.8,282.4L220.8,282.4z"/>
	<path class="st7" d="M303.9,269.6l-0.1-30.9h10c11,0.1,11.9,0.2,14.5,3.2c2.3,2.8,2.4,3.8,2.2,28.8c-0.1,26.2,0,25.3-3.8,28.1
		l-1.8,1.4l-10.5,0.1l-10.4,0.1L303.9,269.6L303.9,269.6z"/>
</g>
</svg>
