<svg xmlns="http://www.w3.org/2000/svg" width="512" height="512" viewBox="0 0 512 512" version="1.1">
	<path d="M 243 47.667 C 236.125 52.330, 220.600 62.352, 208.500 69.938 C 196.400 77.525, 172.100 93.154, 154.500 104.669 C 136.900 116.184, 117.775 128.453, 112 131.932 C 97.967 140.387, 98.684 139.653, 101.172 143.019 C 105.058 148.275, 103.601 149, 89.138 149 C 74.258 149, 74.762 148.651, 75.666 158.331 L 76.260 164.687 66.818 169.777 C 61.624 172.577, 56.166 175.171, 54.688 175.542 C 47.416 177.367, 54.896 177.996, 86.750 178.237 L 121.500 178.500 121.500 182 L 121.500 185.500 88.500 186 C 67.387 186.320, 55.540 186.860, 55.611 187.500 C 55.673 188.050, 57.326 189.275, 59.285 190.222 C 63.924 192.464, 65.843 195.337, 66.621 201.201 L 67.254 205.974 100.877 206.237 L 134.500 206.500 134.803 209.611 C 135.085 212.509, 134.847 212.764, 131.303 213.350 C 129.211 213.695, 112.950 213.983, 95.167 213.989 C 70.115 213.998, 62.925 214.276, 63.241 215.224 C 63.466 215.897, 66.091 216.957, 69.075 217.580 C 72.059 218.202, 75.649 219.258, 77.054 219.927 C 82.565 222.550, 82.460 221.586, 83 274.500 C 83.275 301.450, 83.339 324.063, 83.143 324.750 C 82.899 325.603, 80.473 326, 75.508 326 C 68.876 326, 68.087 326.219, 66.615 328.465 C 65.727 329.820, 65 331.395, 65 331.965 C 65 332.618, 69.228 333, 76.465 333 C 90.189 333, 90 332.826, 90 345.459 C 90 353.760, 89.914 354.082, 87.435 355.025 C 86.024 355.561, 79.724 356, 73.435 356 C 60.894 356, 59.278 356.925, 64.868 360.906 C 69.774 364.399, 70.057 366.341, 69.768 394.500 L 69.500 420.500 57.500 421.114 C 50.900 421.452, 45.388 421.790, 45.250 421.864 C 45.112 421.939, 45 428.300, 45 436 L 45 450 31.559 450 C 24.166 450, 17.864 450.412, 17.553 450.915 C 17.242 451.418, 17.286 459.743, 17.651 469.415 L 18.314 487 256.054 487 L 493.794 487 494.210 470.250 C 494.438 461.038, 494.251 452.725, 493.793 451.779 C 493.079 450.302, 491.085 450.018, 479.730 449.779 L 466.500 449.500 466 435.500 L 465.500 421.500 454 421 L 442.500 420.500 442.234 392.681 L 441.968 364.862 444.937 361.260 C 446.570 359.279, 447.676 357.285, 447.394 356.829 C 447.112 356.373, 441.763 356, 435.506 356 C 429.249 356, 422.976 355.561, 421.565 355.025 C 419.076 354.078, 419 353.786, 419 345.107 C 419 340.188, 419.273 335.452, 419.607 334.582 C 420.115 333.257, 422.229 333, 432.607 333 C 439.423 333, 445 332.732, 445 332.404 C 445 332.077, 444.228 330.502, 443.284 328.904 C 441.438 325.779, 441.468 325.788, 432.500 325.615 L 426.500 325.500 426.237 276.500 C 426.052 242.084, 426.306 226.693, 427.092 224.788 C 428.423 221.562, 434.475 218.428, 441.250 217.455 C 444.305 217.016, 446 216.278, 446 215.386 C 446 214.232, 440.336 214, 412.122 214 C 375.616 214, 375.440 213.975, 376.173 208.805 L 376.500 206.500 409.207 206.236 L 441.914 205.973 442.591 202.236 C 443.636 196.462, 445.696 193.217, 450.065 190.459 C 452.270 189.067, 453.806 187.494, 453.478 186.964 C 453.115 186.377, 440.193 186, 420.460 186 L 388.038 186 387.407 183.487 C 386.039 178.035, 386.269 178, 423.206 178 C 443.076 178, 457.028 177.624, 456.833 177.094 C 456.650 176.596, 452 173.844, 446.500 170.979 C 441 168.114, 436.050 165.344, 435.500 164.823 C 434.950 164.302, 434.500 160.642, 434.500 156.688 L 434.500 149.500 421.250 149.221 L 408 148.942 408 146.528 C 408 145.167, 408.981 143.413, 410.250 142.507 C 412.486 140.911, 412.488 140.892, 410.500 139.387 C 409.400 138.555, 399.050 131.952, 387.500 124.714 C 375.950 117.477, 351.764 101.868, 333.753 90.028 C 267.307 46.347, 256.820 39.497, 256.167 39.345 C 255.800 39.260, 249.875 43.005, 243 47.667 M 250.500 59.857 C 248.300 61.379, 229.850 74.044, 209.500 88.002 C 154.748 125.555, 138.191 137.863, 142.300 137.958 C 143.289 137.981, 145.539 137.266, 147.300 136.368 C 151.366 134.295, 178.257 116.031, 206 96.499 C 217.825 88.175, 233.915 76.974, 241.756 71.608 L 256.012 61.853 283.256 81.237 C 332.352 116.169, 361.687 136.131, 365.881 137.462 C 370.172 138.824, 367.708 135.777, 359.190 129.189 C 346.491 119.367, 257 56.995, 255.678 57.045 C 255.030 57.069, 252.700 58.335, 250.500 59.857 M 249.500 80.158 C 244.933 83.632, 208.149 108.988, 184.750 124.792 C 176.088 130.643, 169 135.926, 169 136.532 C 169 137.264, 176.317 138.049, 190.750 138.868 C 202.713 139.546, 217.675 140.738, 224 141.516 C 240.117 143.500, 264.120 143.323, 287 141.051 C 297.725 139.986, 313.700 138.828, 322.500 138.479 C 331.300 138.130, 339.113 137.649, 339.863 137.410 C 342.144 136.684, 339.450 134.297, 327.500 126.457 C 315.905 118.849, 301.780 109.165, 273.083 89.148 C 263.504 82.467, 255.179 77.026, 254.583 77.058 C 253.987 77.089, 251.700 78.484, 249.500 80.158 M 248 103.500 L 248 111 239.450 111 L 230.900 111 231.200 116.658 L 231.500 122.317 239.715 122.096 C 247.818 121.878, 247.939 121.911, 248.587 124.492 C 248.948 125.931, 249.030 129.334, 248.769 132.054 L 248.294 137 254.647 137 L 261 137 261 129.397 L 261 121.795 269.500 122.147 L 278 122.500 278 116.750 L 278 111 269.500 111 L 261 111 261 103.500 L 261 96 254.500 96 L 248 96 248 103.500 M 197 145.133 C 117.304 146.457, 119.705 146.377, 119.249 147.750 C 118.918 148.746, 145.912 149, 252 149 C 358.088 149, 385.082 148.746, 384.751 147.750 C 384.432 146.790, 374.602 146.351, 342.418 145.860 C 319.363 145.508, 288.125 145.019, 273 144.773 C 257.875 144.527, 223.675 144.689, 197 145.133 M 141 174.300 C 141 180.897, 140.575 185.025, 139.817 185.783 C 139.166 186.434, 138.978 187.312, 139.400 187.733 C 140.423 188.757, 316.011 189.408, 346.542 188.502 L 370.583 187.788 370.247 178.144 C 370.062 172.840, 369.697 167.488, 369.436 166.250 L 368.962 164 254.981 164 L 141 164 141 174.300 M 137.250 193.662 C 136.563 193.940, 136 194.804, 136 195.583 C 136 196.752, 139.106 197.001, 153.750 197.006 C 169.903 197.011, 178.252 197.713, 184.908 199.624 C 187.013 200.229, 187.245 200.044, 186.752 198.158 C 186.015 195.340, 187.449 195.423, 192.852 198.512 C 197.938 201.420, 198 201.433, 198 199.589 C 198 198.813, 196.615 197.013, 194.923 195.589 L 191.847 193 165.173 193.079 C 150.503 193.122, 137.938 193.385, 137.250 193.662 M 318 193.820 C 314.536 195.390, 311 198.327, 311 199.634 C 311 201.279, 315.148 200.605, 318.715 198.381 C 321.743 196.493, 323.806 196.648, 323.639 198.750 C 323.481 200.739, 324.206 200.721, 331.968 198.538 C 335.924 197.425, 342.199 197, 354.659 197 C 371.370 197, 375.574 196.244, 371.878 193.904 C 370.274 192.887, 320.229 192.810, 318 193.820 M 170.329 207.482 C 168.585 208.227, 166.720 209.661, 166.185 210.669 C 165.602 211.766, 164.916 240.851, 164.472 283.236 C 163.885 339.413, 163.991 354.284, 164.989 355.486 C 166.434 357.228, 180.434 357.643, 183 356.021 C 184.305 355.197, 184.539 346.121, 184.801 286.287 C 185.009 238.680, 184.765 216.344, 184.009 213.746 C 182.298 207.861, 176.091 205.020, 170.329 207.482 M 145.035 208.934 C 144.466 209.998, 144 211.596, 144 212.485 C 144 213.374, 142.313 215.648, 140.250 217.537 L 136.500 220.973 135.842 237.236 C 135.481 246.181, 135.143 276.514, 135.092 304.643 C 135.010 350.411, 135.166 355.850, 136.582 356.393 C 139.406 357.477, 150.558 357.042, 151.800 355.800 C 152.711 354.889, 153 337.218, 153 282.382 C 153 242.662, 152.727 209.452, 152.393 208.582 C 151.513 206.288, 146.318 206.537, 145.035 208.934 M 330.190 208.822 C 328.919 209.799, 327.476 212.377, 326.983 214.550 C 325.774 219.877, 325.566 354.966, 326.765 356.165 C 327.274 356.674, 331.247 356.957, 335.595 356.795 L 343.500 356.500 343.757 284.393 C 344.012 212.693, 344.001 212.271, 341.934 209.643 C 339.424 206.453, 333.782 206.058, 330.190 208.822 M 356.750 208.080 C 355.109 209.036, 355 213.626, 355 282.015 L 355 354.930 357.108 356.058 C 359.404 357.287, 377.309 357.029, 378.586 355.749 C 378.999 355.335, 378.803 336.210, 378.153 313.249 C 377.502 290.287, 376.968 264.075, 376.967 255 C 376.964 236.300, 375.745 222.165, 373.876 219.173 C 372.471 216.923, 368.320 214.673, 367.631 215.788 C 367.389 216.179, 367.577 224.150, 368.048 233.500 C 369.169 255.749, 369.214 323.113, 368.110 324.857 C 367.529 325.773, 367.034 325.864, 366.585 325.137 C 365.697 323.700, 363.767 217.523, 364.543 212.825 C 365.043 209.801, 364.795 208.960, 363.141 208.075 C 360.671 206.753, 359.026 206.755, 356.750 208.080 M 90.178 221.228 C 90.499 223.490, 90.583 223.501, 109.822 223.772 L 129.145 224.044 128.822 221.772 C 128.501 219.510, 128.417 219.499, 109.178 219.228 L 89.855 218.956 90.178 221.228 M 382.180 221.250 C 382.496 223.475, 382.698 223.503, 400.250 223.773 L 418 224.046 418 221.523 L 418 219 399.930 219 L 381.861 219 382.180 221.250 M 93.200 236.200 C 92.311 237.089, 92 246.689, 92 273.200 L 92 309 105.250 308.900 C 122.918 308.767, 123.423 308.601, 123.801 302.802 C 124.236 296.134, 122.360 295.074, 111.341 295.762 C 104.688 296.177, 102.594 295.985, 101.868 294.897 C 101.333 294.095, 101.038 281.572, 101.175 265.489 C 101.306 250.083, 101.069 236.921, 100.648 236.239 C 99.669 234.656, 94.770 234.630, 93.200 236.200 M 407.200 236.200 C 406.321 237.079, 406 245.244, 406 266.700 L 406 296 396.035 296 C 387.207 296, 385.952 296.221, 385.035 297.934 C 383.356 301.071, 383.835 303.926, 386.484 306.575 C 388.912 309.003, 389.265 309.052, 402.234 308.779 L 415.500 308.500 415.763 273.118 C 415.951 247.837, 415.702 237.346, 414.890 236.368 C 413.489 234.680, 408.822 234.578, 407.200 236.200 M 192.362 237.500 C 192.042 238.334, 192.515 240.137, 193.413 241.508 L 195.046 244 255.401 244 C 320.601 244, 318.587 244.168, 317.827 238.805 L 317.500 236.500 255.222 236.242 C 200.348 236.015, 192.874 236.165, 192.362 237.500 M 196.250 250.663 C 193.425 251.261, 193.440 251.546, 196.500 255.182 C 198.862 257.989, 199 258.814, 199 270.126 C 199 279.222, 198.610 282.854, 197.375 285.241 C 194.361 291.069, 194.101 294.058, 193.941 324.716 C 193.760 359.384, 193.297 357.560, 201.978 356.409 L 207 355.742 206.985 304.621 C 206.976 276.505, 206.602 252.922, 206.154 252.215 C 205.249 250.789, 199.735 249.925, 196.250 250.663 M 213.309 251.250 C 212.864 251.938, 212.364 289.737, 212.197 335.250 L 211.894 418 255.197 418 L 298.500 418.001 298.187 335.277 C 297.973 278.958, 297.535 252.145, 296.814 251.276 C 295.286 249.435, 214.500 249.410, 213.309 251.250 M 305.035 252.934 C 304.361 254.194, 304 272.457, 304 305.327 C 304 360.769, 303.562 357, 310 357 C 316.337 357, 316 358.870, 316 323.740 L 316 291.693 313.417 286.232 C 311.028 281.183, 310.859 279.921, 311.167 269.464 C 311.469 259.208, 311.719 257.922, 313.855 255.652 C 316.923 252.389, 315.914 251, 310.476 251 C 307.144 251, 305.818 251.471, 305.035 252.934 M 219 254.986 C 217.688 255.809, 217.500 265.543, 217.500 332.713 L 217.500 409.500 255.250 409.762 L 293 410.024 293 332.981 C 293 272.218, 292.736 255.856, 291.750 255.553 C 288.789 254.641, 220.399 254.109, 219 254.986 M 232.916 272.865 L 230.500 274.820 230.200 299.509 C 229.836 329.386, 229.720 329.008, 239.273 328.985 C 242.698 328.976, 246.175 328.543, 247 328.022 C 248.257 327.229, 248.542 322.980, 248.761 301.788 C 249.074 271.531, 249.102 271.641, 240.892 271.205 C 236.563 270.975, 234.798 271.343, 232.916 272.865 M 263.571 272.571 C 262.224 273.919, 262 277.819, 262 299.916 C 262 323.615, 262.147 325.823, 263.829 327.345 C 266.501 329.764, 274.056 329.531, 277.365 326.927 L 280 324.855 280 299.582 C 280 276.369, 279.851 274.175, 278.171 272.655 C 275.707 270.425, 265.774 270.368, 263.571 272.571 M 285.694 333.639 C 284.895 334.438, 285.798 336, 287.059 336 C 287.577 336, 288 335.325, 288 334.500 C 288 332.954, 286.820 332.513, 285.694 333.639 M 274.441 341.481 C 271.292 343.883, 274.385 345.167, 281.500 344.412 C 288.344 343.686, 288.457 343.633, 287.655 341.543 C 286.857 339.465, 277.144 339.419, 274.441 341.481 M 223 343.917 C 223 345.255, 224.623 345.589, 229.062 345.166 C 234.719 344.626, 233.922 343, 228 343 C 225.250 343, 223 343.413, 223 343.917 M 204 383.073 C 204 399.747, 204.135 401.121, 205.750 400.810 C 207.326 400.508, 207.527 398.708, 207.773 382.737 C 208.038 365.509, 207.988 365, 206.023 365 C 204.067 365, 204 365.598, 204 383.073 M 303 382.930 L 303 401 305.523 401 L 308.046 401 307.773 383.250 C 307.503 365.698, 307.475 365.496, 305.250 365.180 L 303 364.861 303 382.930 M 185.200 370.200 C 184.371 371.029, 184 376.133, 184 386.700 L 184 402 186.500 402 L 189 402 189 385.500 C 189 368.661, 188.550 366.850, 185.200 370.200 M 323.570 385.250 C 323.634 400.105, 323.796 401.530, 325.450 401.848 C 326.446 402.040, 327.623 401.610, 328.066 400.892 C 328.510 400.175, 328.624 393.268, 328.319 385.544 C 327.882 374.436, 327.437 371.239, 326.192 370.250 C 325.326 369.563, 324.366 369, 324.059 369 C 323.751 369, 323.532 376.312, 323.570 385.250 M 136.721 371.756 C 135.417 373.197, 135.075 376.808, 134.816 391.860 L 134.500 410.207 130.750 413.354 C 128.606 415.153, 127 417.399, 127 418.600 C 127 420.534, 127.727 420.752, 136.154 421.350 C 141.188 421.708, 149.401 421.992, 154.404 421.982 C 164.082 421.962, 183.872 419.528, 185.208 418.192 C 185.648 417.752, 185.443 416.641, 184.754 415.723 C 183.590 414.174, 182.853 414.168, 174.500 415.638 C 168.642 416.668, 162.533 417.040, 157 416.702 C 147.756 416.137, 138 414.148, 138 412.828 C 138 412.373, 142.088 412, 147.083 412 C 152.322 412, 156.026 411.602, 155.833 411.060 C 155.650 410.543, 153.944 409.076, 152.042 407.799 C 147.511 404.757, 146.708 400.920, 147.268 385 C 147.511 378.125, 147.512 371.938, 147.271 371.250 C 146.585 369.290, 138.607 369.672, 136.721 371.756 M 367.250 371.522 C 365.063 373.069, 365 373.604, 365 390.592 L 365 408.071 360.250 410.284 L 355.500 412.496 362.999 412.797 C 367.123 412.962, 370.873 413.473, 371.333 413.933 C 371.792 414.392, 368.361 415.334, 363.707 416.027 C 355.635 417.228, 343.151 416.983, 331.750 415.399 C 327.438 414.801, 327 414.925, 327 416.753 C 327 419.337, 328.620 419.757, 344 421.164 C 352.523 421.943, 361.113 422.020, 371 421.404 C 384.679 420.551, 385.480 420.387, 385.152 418.512 C 384.960 417.419, 383.272 414.830, 381.402 412.759 C 379.531 410.689, 377.923 408.883, 377.828 408.747 C 377.733 408.611, 377.396 399.950, 377.078 389.500 L 376.500 370.500 373 370.215 C 370.984 370.051, 368.546 370.605, 367.250 371.522 M 188.674 427.660 C 188.303 428.030, 188 429.600, 188 431.148 C 188 433.238, 188.579 434.102, 190.250 434.507 C 191.488 434.807, 221.975 434.928, 258 434.776 L 323.500 434.500 323.500 431 L 323.500 427.500 256.424 427.243 C 219.532 427.102, 189.044 427.289, 188.674 427.660 M 50.210 440.662 L 50.500 449.500 63 449.751 C 77.178 450.036, 78.684 449.596, 76.907 445.696 C 74.864 441.210, 63.005 434.621, 53.210 432.527 L 49.920 431.823 50.210 440.662 M 451.989 433.435 C 441.255 437.393, 431 444.322, 431 447.617 C 431 449.672, 434.380 450.104, 448 449.789 L 460.500 449.500 460.789 440.750 L 461.078 432 458.289 432.070 C 456.755 432.109, 453.920 432.723, 451.989 433.435 M 122.211 441.750 L 122.500 450.500 127 450.835 C 132.644 451.256, 156.285 449.060, 158.083 447.949 C 161.097 446.086, 155.570 442.974, 140.432 438.009 C 132.030 435.254, 124.429 433, 123.539 433 C 122.151 433, 121.963 434.238, 122.211 441.750 M 381.500 434.510 C 379.300 435.312, 373.450 437.328, 368.500 438.988 C 357.155 442.794, 352.385 445.554, 353.931 447.417 C 355.190 448.934, 377.717 451.426, 385 450.854 L 389.500 450.500 389.500 442 C 389.500 432.312, 388.945 431.793, 381.500 434.510 M 190.500 444 C 190.151 445.100, 190.151 446.900, 190.500 448 C 191.126 449.973, 192.013 450, 255.599 450 C 326.012 450, 322.814 450.276, 320.153 444.436 L 319.043 442 255.089 442 C 192.013 442, 191.126 442.027, 190.500 444 M 181.950 458.560 C 181.025 459.675, 180.926 460.886, 181.602 462.810 L 182.548 465.500 254.914 465.757 C 307.541 465.943, 327.650 465.705, 328.640 464.884 C 330.322 463.488, 330.410 459.810, 328.800 458.200 C 327.889 457.289, 310.227 457, 255.422 457 C 191.256 457, 183.101 457.173, 181.950 458.560" stroke="none" fill="black" fill-rule="evenodd"/>
</svg>