<?xml version="1.0" encoding="utf-8"?>
<!DOCTYPE svg PUBLIC "-//W3C//DTD SVG 1.0//EN" "http://www.w3.org/TR/2001/REC-SVG-20010904/DTD/svg10.dtd">
<svg version="1.0" xmlns="http://www.w3.org/2000/svg" width="512px" height="512px" viewBox="0 0 512 512" preserveAspectRatio="xMidYMid meet">
 <g fill="#303f9e">
  <path d="M319 479.5 c0 -0.8 1.8 -3.1 4 -5.1 2.3 -2.1 4.4 -5.1 5 -7.2 1.3 -5 1.4 -200.4 0 -205.1 -1 -3.7 -6.6 -10.1 -8.7 -10.1 -0.8 0 -1.3 -1.3 -1.3 -3.6 l0 -3.5 22.8 0.3 c21.6 0.3 22.8 0.4 25.8 2.5 6.8 4.9 6.5 -2.6 6.2 118 l-0.3 108.8 -2.3 3.3 -2.3 3.2 -24.5 0 c-21 0 -24.4 -0.2 -24.4 -1.5z"/>
 </g>
 <g fill="#3f51b4">
  <path d="M138.8 477.8 l-2.3 -3.3 -0.3 -108.8 c-0.3 -121.7 -0.7 -113.3 6.9 -118.4 3.7 -2.5 3.9 -2.5 33.3 -3 l29.6 -0.6 0 2.1 0 2.2 50 0 c49.3 0 50 0 50 -2 0 -2 0.6 -2 26.3 -1.9 28.6 0.1 34 0.8 34.5 4.7 0.2 1.4 1 2.2 2.3 2.2 1.2 0 1.9 0.7 1.9 1.9 0 1.1 0.5 2.1 1.1 2.3 0.6 0.2 1.3 4.1 1.6 8.6 0.6 7.8 0.5 8.2 -1.4 8.2 -1.9 0 -2.1 -0.7 -2.4 -7.3 -0.3 -5.4 -1 -8 -2.6 -10.3 -4.1 -5.8 -7 -6.4 -28 -6.3 -11 0 -18 0.4 -16.8 0.9 3.2 1.3 7.5 6.4 8.5 10.1 1.4 4.7 1.3 206.1 0 211.1 -0.6 2.1 -2.7 5.1 -5 7.2 l-4 3.6 -12.5 0 c-11.4 0 -12.5 -0.2 -12.5 -1.8 0 -1 1 -2.4 2.3 -3.1 1.2 -0.6 3.3 -2.8 4.7 -4.8 l2.5 -3.7 0 -38 c0 -36.6 -0.1 -38.2 -2.1 -41.6 -1.1 -1.9 -3.5 -4.5 -5.4 -5.7 -3.3 -2.3 -3.4 -2.3 -43.7 -2.3 -45.6 0 -45.3 0 -50.1 7.3 l-2.7 4.1 0 37.5 c0 41.5 -0.1 40.9 6.5 46.4 1.6 1.4 3 3.3 3 4.1 0 1.4 -4 1.6 -35.4 1.6 l-35.5 0 -2.3 -3.2z m171.1 -124.9 c1.7 -1.7 3.1 -4.1 3.1 -5.3 0 -3.5 -3.6 -7.4 -7.8 -8.6 -4 -1.1 -94.7 -1.5 -100.1 -0.4 -4.2 0.9 -9.1 5.5 -9.1 8.7 0 1.5 1.3 3.8 3.1 5.6 l3.1 3.1 52.3 0 52.3 0 3.1 -3.1z m0 -38.3 c4 -3.9 4 -7.3 0 -11.2 l-3 -2.9 -52.4 0 -52.4 0 -3 2.9 c-4.6 4.5 -3.8 8.9 2.2 12.7 3.1 1.9 5.1 1.9 54.4 1.7 l51.2 -0.3 3 -2.9z"/>
  <path d="M363 478.8 c1.8 -1.3 4.1 -3.9 5.1 -5.8 1.8 -3.3 1.9 -7.8 1.9 -92.7 0 -89 0 -89.3 2 -89.3 2 0 2.1 0.2 1.8 91.2 -0.2 71.8 -0.6 91.2 -1.5 91.6 -0.7 0.2 -1.3 1.2 -1.3 2.3 0 1.4 -0.7 1.9 -2.5 1.9 -1.6 0 -2.5 0.6 -2.5 1.5 0 1 -1 1.5 -3.1 1.5 l-3.2 0 3.3 -2.2z"/>
 </g>
 <g fill="#0287d0">
  <path d="M206.3 478.5 l-2.8 -2.4 3.2 -0.1 c4.4 0 6.3 0.9 6.3 3.1 0 2.7 -3.3 2.4 -6.7 -0.6z"/>
  <path d="M364 478.4 c3.6 -3.1 5.5 -6.5 6.4 -11.6 0.9 -4.9 3.6 -5.2 3.6 -0.5 0 4 -1.8 10.7 -2.9 10.7 -0.5 0 -1.1 0.9 -1.4 2 -0.4 1.6 -1.4 2 -4.7 2 l-4.2 0 3.2 -2.6z"/>
  <path d="M466 479.5 c0 -0.8 1.8 -3.1 4 -5.1 2.4 -2.2 4.4 -5.1 5 -7.4 0.7 -2.5 0.9 -64.5 0.8 -186.1 -0.3 -180.4 -0.3 -182.4 -2.3 -185.8 -1.1 -1.9 -3.1 -4.2 -4.5 -5.3 -1.4 -1 -38.1 -12.7 -81.5 -26 -43.5 -13.2 -79.1 -24.2 -79.3 -24.3 -0.7 -0.6 2.1 -4 4.5 -5.9 6.1 -4.6 5.4 -4.7 99.3 23.9 48.1 14.7 89.3 27.7 91.4 28.9 2.2 1.1 4.9 3.7 6 5.6 2.1 3.5 2.1 3.7 2.1 191.2 l0 187.7 -2.1 2.8 c-1.1 1.5 -3.6 3.8 -5.4 5.1 -3.1 2.1 -4.3 2.2 -20.6 2.2 -14.8 0 -17.4 -0.2 -17.4 -1.5z"/>
  <path d="M301 477 c0 -1.7 0.5 -3 1.3 -3 1.2 0 3.7 -6.4 3.7 -9.5 0 -0.9 0.9 -1.5 2.1 -1.5 2 0 2.1 0.4 1.5 4.3 -0.7 4.5 -3.8 9.7 -6.8 11.6 -1.6 1 -1.8 0.8 -1.8 -1.9z"/>
  <path d="M199.5 464.7 c-0.4 -1.8 -0.5 -19.7 -0.3 -39.7 0.3 -35.9 0.3 -36.6 2.6 -40.1 2.2 -3.6 4.9 -5.9 8.5 -7.2 1.3 -0.5 1.7 -0.1 1.7 1.8 0 1.6 -0.6 2.5 -1.5 2.5 -0.8 0 -1.5 0.5 -1.5 1 0 0.6 -1.1 1 -2.4 1 -2.1 0 -2.4 0.6 -3 5.3 -0.3 2.8 -0.6 21.7 -0.6 42 0 31.4 -0.2 36.7 -1.5 36.7 -0.8 0 -1.7 -1.4 -2 -3.3z"/>
  <path d="M306 391.5 c0 -4 2.4 -4.9 3.4 -1.2 1 3.7 0.7 4.7 -1.4 4.7 -1.6 0 -2 -0.7 -2 -3.5z"/>
  <path d="M299 382 c0 -0.5 -0.9 -1 -2 -1 -1.3 0 -2 -0.7 -2 -2 0 -1.1 0.7 -2 1.5 -2 2.1 0 6.8 2.5 8.4 4.4 1.2 1.4 0.9 1.6 -2.3 1.6 -2 0 -3.6 -0.4 -3.6 -1z"/>
  <path d="M196.1 356 c-4 -4.1 -4.9 -8.8 -2.5 -13.7 2.5 -4.8 4.4 -5.4 4.4 -1.4 0 1.7 -0.4 3.1 -1 3.1 -0.5 0 -1 2 -1 4.5 0 3.8 0.3 4.5 2 4.5 1.1 0 2 0.5 2 1 0 0.6 0.7 1 1.5 1 0.8 0 1.5 0.9 1.5 2 0 3 -3.3 2.5 -6.9 -1z"/>
  <path d="M306 357 c0 -1.1 0.6 -2 1.4 -2 0.8 0 1.6 -0.5 1.8 -1.1 0.2 -0.6 1.7 -0.9 3.3 -0.7 l3 0.3 -2.9 2.8 c-3.5 3.2 -6.6 3.6 -6.6 0.7z"/>
  <path d="M311 342.5 c0 -0.8 -0.7 -1.5 -1.5 -1.5 -0.9 0 -1.5 -0.9 -1.5 -2.5 0 -3.3 1.5 -3.2 5.1 0.4 3.6 3.6 3.7 5.1 0.4 5.1 -1.6 0 -2.5 -0.6 -2.5 -1.5z"/>
  <path d="M200 337.6 c0 -1.3 2.8 -2.6 5.8 -2.6 0.6 0 1.2 0.9 1.2 2 0 1.6 -0.7 2 -3.5 2 -2.3 0 -3.5 -0.5 -3.5 -1.4z"/>
  <path d="M199.8 319.9 c-2.9 -1.6 -2.1 -2.9 1.7 -2.9 2.8 0 3.5 0.4 3.5 2 0 2.2 -2.4 2.6 -5.2 0.9z"/>
  <path d="M304 319.1 c0 -1.6 0.8 -2.2 3.9 -2.7 3.5 -0.6 3.9 -1 4.4 -4 0.3 -1.9 0.3 -5 0 -6.9 -0.5 -2.9 -1 -3.5 -2.9 -3.5 -1.9 0 -2.4 -0.5 -2.4 -2.4 0 -3.2 2.7 -2.5 6.6 1.6 2.4 2.4 2.9 3.8 2.9 7.8 0 4.2 -0.5 5.4 -3 8 -1.6 1.6 -4.5 3.2 -6.2 3.6 -2.9 0.6 -3.3 0.4 -3.3 -1.5z"/>
  <path d="M192.4 306.8 c0.8 -4.2 5.2 -8.6 9.4 -9.4 2.8 -0.6 3.2 -0.4 3.2 1.5 0 1.6 -0.8 2.2 -3.9 2.7 -3.6 0.6 -3.9 0.9 -4.5 4.5 -0.5 3.1 -1.1 3.9 -2.7 3.9 -1.9 0 -2.1 -0.4 -1.5 -3.2z"/>
  <path d="M370.6 294.8 c-1 -3.8 -0.7 -4.8 1.4 -4.8 1.6 0 2 0.7 2 3.5 0 4 -2.4 4.9 -3.4 1.3z"/>
  <path d="M370.4 266.3 c0 -10.5 -4 -16.2 -12.6 -18.3 -5 -1.3 -6.7 -4 -2.4 -4 4.5 0 8.6 1.3 8.6 2.6 0 0.8 1.1 1.4 2.6 1.4 1.7 0 2.8 0.6 3.1 2 0.3 1.1 0.9 2 1.4 2 1.4 0 2.9 7.2 2.9 14.3 0 5.8 -0.2 6.7 -1.8 6.7 -1.5 0 -1.8 -0.9 -1.8 -6.7z"/>
  <path d="M142 250 c0 -2.8 0.3 -3 3.5 -3 4.4 0 4.4 0.9 0 3.8 l-3.5 2.2 0 -3z"/>
  <path d="M152 246 c0 -1.8 0.7 -2 8 -2 6.1 0 8 0.3 8 1.4 0 1.8 -3.1 2.6 -10.2 2.6 -5.1 0 -5.8 -0.2 -5.8 -2z"/>
 </g>
 <g fill="#2195f2">
  <path d="M296 479.1 c0 -2.2 1.9 -3.1 6.3 -3.1 l3.2 0.1 -2.8 2.4 c-3.4 3 -6.7 3.3 -6.7 0.6z"/>
  <path d="M363.2 479.5 c1.4 -0.8 3.7 -3.2 5 -5.2 l2.3 -3.8 0 -106 0 -106 -2.2 -3.5 c-1.2 -1.9 -3.5 -4.3 -5.2 -5.3 -1.7 -1 -3.1 -2.2 -3.1 -2.8 0 -0.5 4.8 -0.9 11.1 -0.9 12.7 0 16.8 -1.3 19.2 -6.3 1.3 -2.7 1.4 -3.5 0.2 -5.7 -2.4 -4.6 -6 -6.2 -15.5 -6.8 -13.8 -0.8 -19.4 0.3 -23.5 4.4 -4 3.9 -4.3 5.9 -1.5 9.4 1.1 1.4 2 3.3 2 4.3 0 1.6 -1.8 1.7 -23 1.7 l-23 0 0 -101.7 c0 -95 0.1 -102 1.8 -105.3 1.1 -2.2 2.3 -3.4 3.4 -3.2 5.9 1 158.8 48.5 160.8 50 1.4 1.1 3.4 3.4 4.5 5.3 2 3.4 2 5.4 2.3 188.8 0.1 123.6 -0.1 186.6 -0.8 189.1 -0.6 2.3 -2.6 5.2 -5 7.4 l-4 3.6 -54.3 0 c-47.8 -0.1 -53.9 -0.3 -51.5 -1.5z m21.3 -189.9 c1.9 -0.8 4.4 -3 5.4 -4.8 2 -3.1 2 -3.3 0.3 -6.3 -2.2 -3.7 -7.5 -6.5 -12.4 -6.5 l-3.8 0 0 9.5 0 9.5 3.5 0 c2 0 5.1 -0.6 7 -1.4z m78.5 -0.4 c1.9 -0.9 4.2 -3.1 5.2 -4.8 1.8 -3 1.8 -3.2 -0.5 -6.5 -3.3 -5 -7.8 -6.1 -22.4 -5.7 -11.9 0.3 -12.2 0.4 -15.2 3.2 -4 3.9 -4.6 6.1 -2.5 9.4 3.4 5.2 5.8 6 20.4 6.1 9.1 0.1 12.2 -0.3 15 -1.7z m-0.7 -44.1 c10.9 -4.2 7.5 -16.1 -4.9 -17.7 -3.1 -0.3 -9.7 -0.4 -14.6 -0.2 -9.7 0.6 -12.9 2 -15.8 7.1 -1.2 2.2 -1.2 2.9 0 5.3 2.9 5.3 6.2 6.4 20.2 6.4 7 0 13.8 -0.4 15.1 -0.9z m-76 -45.6 c1.5 -1 3.4 -3 4.2 -4.5 1.2 -2.2 1.1 -3 -0.2 -5.7 -2.4 -5.1 -6.3 -6.3 -20.8 -6.3 -13.7 0 -16.9 0.9 -19.9 5.4 -2.3 3.6 -2 5.1 1.9 9 4.1 4.2 5.7 4.5 20.5 4.2 9.3 -0.2 12 -0.6 14.3 -2.1z m73 1.8 c4.8 -0.7 9.7 -5.4 9.7 -9.2 0 -3.1 -3 -6.8 -6.7 -8.2 -4.1 -1.5 -26.9 -1.1 -30.2 0.5 -3 1.6 -6.1 5.6 -6.1 8 0 2.6 5.4 7.7 9 8.6 4.3 1 19.1 1.2 24.3 0.3z m-74.3 -46.1 c1.9 -0.9 4.2 -3.1 5.2 -4.7 1.7 -3 1.7 -3.2 -0.3 -6.3 -3.2 -5.3 -7.3 -6.4 -21.8 -6 -13.9 0.4 -15.9 1.1 -18.8 6.5 -1.7 3.1 -1.7 3.3 0.3 6 3.7 5.1 7.7 6.3 20.4 6.3 9 0 12.3 -0.4 15 -1.8z m77 0.5 c1.9 -0.7 4.4 -2.7 5.7 -4.6 2.3 -3.3 2.3 -3.5 0.5 -6.5 -3.2 -5.6 -7 -6.7 -21.7 -6.4 -9 0.2 -13.7 0.8 -15.1 1.7 -2.3 1.5 -5.4 6.1 -5.4 8 0 1.8 6 8 8.3 8.4 4.9 0.9 24.4 0.5 27.7 -0.6z"/>
  <path d="M201 472.1 c-1.6 -3.1 -1.2 -5.1 1 -5.1 1.6 0 2 0.7 2 3.5 0 3.9 -1.4 4.6 -3 1.6z"/>
  <path d="M305.8 433.1 c0.3 -34.6 0.1 -41.3 -1.1 -43.7 -2.3 -4.5 -5.1 -7.2 -8 -7.9 -1.8 -0.5 -2.7 -1.4 -2.7 -2.7 0 -4.5 10.5 0.5 13.8 6.5 1.5 2.9 1.7 7.1 1.7 43.7 0 31.2 -0.3 41 -1.3 42.8 -0.7 1.2 -1.6 2.2 -2 2.2 -0.4 0 -0.6 -18.4 -0.4 -40.9z"/>
  <path d="M200.2 388.3 c2.5 -5.2 3.8 -6.8 7.4 -8.9 5 -2.9 7.4 -3.1 7.4 -0.4 0 1.6 -0.7 2 -3.5 2 -2.9 0 -3.5 0.4 -3.5 2 0 1.1 -0.7 2.3 -1.5 2.6 -0.8 0.4 -1.5 1.2 -1.5 2 0 0.8 -1 1.4 -2.6 1.4 -1.4 0 -2.4 -0.3 -2.2 -0.7z"/>
  <path d="M197.8 357.3 c-3.2 -2 -4.8 -4.7 -5.1 -8.8 -0.3 -4.6 2.9 -4.6 3.7 -0.1 0.4 2 1.1 3.6 1.6 3.6 0.6 0 1 0.7 1 1.5 0 0.9 0.9 1.5 2.5 1.5 1.8 0 2.5 0.5 2.5 2 0 2.5 -2.5 2.6 -6.2 0.3z"/>
  <path d="M305 357 c0 -1.5 0.7 -2 2.5 -2 1.5 0 2.5 -0.6 2.5 -1.4 0 -0.8 0.5 -1.6 1.1 -1.8 0.6 -0.2 1.3 -2.5 1.6 -5.1 0.7 -5.6 2.9 -6.4 3.8 -1.3 0.9 4.4 -1.5 9.6 -5.4 11.9 -3.9 2.3 -6.1 2.2 -6.1 -0.3z"/>
  <path d="M196 338.9 c0 -0.3 1.2 -1.2 2.7 -2 2.1 -1.2 11.8 -1.4 55.8 -1.4 44 0 53.7 0.2 55.8 1.4 1.5 0.8 2.7 1.7 2.7 2 0 0.3 -26.3 0.6 -58.5 0.6 -32.2 0 -58.5 -0.3 -58.5 -0.6z"/>
  <path d="M199 319.2 c-4.4 -2.1 -7.4 -7.9 -6.5 -12.2 1 -4.6 3.5 -3.9 3.5 1 0 2.2 0.5 4 1 4 0.6 0 1 0.7 1 1.5 0 0.8 0.7 1.5 1.5 1.5 0.8 0 1.5 0.5 1.5 1 0 0.6 1.1 1 2.5 1 1.8 0 2.5 0.5 2.5 2 0 2.5 -2.3 2.6 -7 0.2z"/>
  <path d="M303 319 c0 -1.6 0.7 -2 3.5 -2 4 0 4.9 2.4 1.3 3.4 -3.8 1 -4.8 0.7 -4.8 -1.4z"/>
  <path d="M313 309 c0 -5.5 2.3 -7.1 3.4 -2.5 0.8 3.3 -0.3 7.5 -2 7.5 -1 0 -1.4 -1.4 -1.4 -5z"/>
  <path d="M304 299 c0 -2.2 2 -2.6 5.1 -1 3 1.6 2.3 3 -1.6 3 -2.8 0 -3.5 -0.4 -3.5 -2z"/>
 </g>
 <g fill="#f8a725">
  <path d="M143 479.5 c0 -0.9 -0.9 -1.5 -2.5 -1.5 -1.8 0 -2.5 -0.5 -2.5 -1.9 0 -1.1 -0.6 -2.1 -1.2 -2.3 -1 -0.4 -1.4 -19.8 -1.6 -91.6 -0.3 -91 -0.2 -91.2 1.8 -91.2 2 0 2 0.3 2 89.3 0 84.9 0.1 89.4 1.9 92.7 1 1.9 3.3 4.5 5.1 5.8 l3.3 2.2 -3.2 0 c-2.1 0 -3.1 -0.5 -3.1 -1.5z"/>
  <path d="M135.3 263.8 c0.3 -4.5 1 -8.4 1.6 -8.6 0.6 -0.2 1.1 -1.2 1.1 -2.3 0 -1.4 0.7 -1.9 2.5 -1.9 2 0 2.5 -0.5 2.5 -2.5 0 -2.2 0.4 -2.5 3.5 -2.5 1.9 0 3.5 -0.4 3.5 -1 0 -0.5 1.8 -1 4 -1 5.4 0 5.5 2.7 0.3 3.5 -6.3 1.1 -9.3 2.6 -12.1 6.3 -2.2 2.9 -2.7 4.8 -3 10.9 -0.4 6.6 -0.6 7.3 -2.5 7.3 -1.9 0 -2 -0.4 -1.4 -8.2z"/>
  <path d="M161.7 145.8 c-0.2 -55.7 -0.7 -102.5 -1.1 -103.9 -0.8 -2.5 -0.6 -2.6 13 -6.8 15.5 -4.9 20.8 -5.1 26.2 -1.1 6.5 4.8 6.2 -0.4 6.2 111.5 l0 101.5 -22 0 -22 0 -0.3 -101.2z"/>
 </g>
 <g fill="#fec007">
  <path d="M9.1 479.2 c-4.3 -2.1 -7 -5.7 -8.1 -10.8 -1.2 -4.9 -1.2 -365.3 -0.1 -371.2 0.6 -2.8 2 -5.6 4.2 -7.8 3.9 -4 -2.6 -1.9 89.3 -29.9 64.4 -19.7 68 -20.7 69.3 -19 1.1 1.6 1.3 20.1 1.3 104.2 l0 102.3 -5.4 0 c-3 0 -6.1 0.3 -7 0.6 -2.3 0.9 -2.1 -3.2 0.4 -6.3 2.7 -3.5 2.5 -6.5 -0.6 -9.6 -3.3 -3.4 -6.8 -4 -19.4 -3.5 -10 0.3 -10.2 0.3 -13.1 3.6 -3.3 3.7 -3.6 5.8 -1.3 9.1 2.8 3.9 7.3 5.1 19.4 5.1 9.1 0 11 0.3 11 1.5 0 0.8 -0.6 1.5 -1.3 1.5 -1.6 0 -5.9 4.5 -7.8 8 -0.7 1.4 -1.3 5.5 -1.3 9.3 l0 6.7 -7.1 0 c-5 0 -7.8 0.5 -9.5 1.7 -5.8 4 -6.4 7.7 -2.1 12.1 3 3 7.1 4.2 14.6 4.2 l4 0 0 89.3 c0 98.9 -0.4 92.2 6.5 98.1 l3.2 2.6 -67.9 0 c-62.6 0 -68.1 -0.1 -71.2 -1.8z m75.2 -190.7 c4.3 -2.8 5.8 -6.4 4.1 -9.6 -2.6 -5 -5.3 -5.9 -18.1 -5.9 -9.5 0 -12.3 0.3 -14.3 1.7 -5.8 4 -6.4 7.7 -2 12.2 3.6 3.6 5.7 4 18 3.7 7.2 -0.2 10.2 -0.7 12.3 -2.1z m-2.6 -43.6 c7.3 -2.7 9.3 -8.6 4.7 -13.2 -3.3 -3.4 -6.8 -4 -19.4 -3.5 -10 0.3 -10.2 0.3 -13.1 3.6 -1.6 1.8 -2.9 3.9 -2.9 4.8 0 2.8 4 7.3 7.3 8.3 4.5 1.3 20 1.3 23.4 0z m0.6 -44.8 c6.3 -2.4 8.6 -9 4.5 -12.9 -3.5 -3.2 -7.2 -4.2 -16.1 -4.2 -10.7 0 -15.1 1.3 -17.8 5.2 -2.8 3.9 -1.8 7.3 3 10.5 3 2 4.6 2.3 13.7 2.3 5.6 0 11.4 -0.4 12.7 -0.9z m67.2 -0.6 c6.5 -3.2 7.1 -9.5 1.2 -13.9 -2.5 -1.9 -4.2 -2.1 -14.7 -2.1 -10.5 0 -12.2 0.2 -14.7 2.1 -4.2 3.2 -5.2 6.8 -2.6 10.2 1.1 1.5 3.1 3.3 4.4 3.9 3.6 1.9 22.3 1.7 26.4 -0.2z m-65.1 -45 c4.2 -2.8 5.7 -6.4 4 -9.6 -2.1 -4.1 -5.9 -6 -13.3 -6.6 -10.9 -0.9 -17.6 0.3 -21.1 3.8 -1.6 1.7 -3 4.1 -3 5.3 0 2.9 4.4 7.4 7.9 8.2 1.4 0.3 3.1 0.8 3.6 1 0.6 0.2 5.1 0.2 10.1 0 6.6 -0.2 9.8 -0.8 11.8 -2.1z m66.5 -0.4 c8.6 -6.2 3.4 -14.7 -9.7 -15.8 -11 -0.9 -17.6 0.3 -21.2 3.8 -1.6 1.7 -3 4.1 -3 5.3 0 2.9 4.4 7.4 7.9 8.2 1.4 0.3 3.1 0.8 3.6 1 0.6 0.2 5.1 0.2 10.1 0 7.5 -0.2 9.7 -0.7 12.3 -2.5z"/>
 </g>
 <g fill="#42a4f4">
  <path d="M274 479.5 c0 -0.8 1.8 -3.1 4 -5.1 2.3 -2.1 4.4 -5.1 5 -7.2 0.6 -2.2 1 -18.1 1 -38.7 0 -31.9 -0.2 -35.4 -1.9 -39.1 -1.9 -4.2 -6.3 -8.4 -8.7 -8.4 -0.8 0 -1.4 -0.9 -1.4 -2 0 -1.9 0.7 -2 12.2 -2 14.5 0 19.1 1.6 22.6 7.9 2.2 3.8 2.2 4.6 2.2 44.2 0 45 0 45 -6.9 49.6 -3.1 2.1 -4.6 2.3 -15.7 2.3 -10.4 0 -12.4 -0.2 -12.4 -1.5z"/>
  <path d="M371 292 c0 -1.8 0.7 -2 6.3 -2 12.4 0 18.1 -8.1 10 -14.2 -3.1 -2.4 -4.6 -2.8 -10 -2.8 -5.6 0 -6.3 -0.2 -6.3 -2 0 -1.8 0.7 -2 6.5 -2 3.6 0 8.1 0.6 10 1.4 4 1.7 7.5 6.8 7.5 11.1 0 4.3 -3.5 9.4 -7.5 11.1 -1.9 0.8 -6.4 1.4 -10 1.4 -5.8 0 -6.5 -0.2 -6.5 -2z"/>
  <path d="M431.5 293.2 c-5.5 -1.8 -8.5 -6 -8.5 -11.9 0 -3.5 0.6 -5 3.4 -8.1 l3.4 -3.7 15.4 -0.3 c17.9 -0.4 22 0.5 25.5 5.7 2.8 4.2 2.9 8.6 0.3 12.9 -3.2 5.2 -6.9 6.2 -23.2 6.1 -7.9 -0.1 -15.2 -0.4 -16.3 -0.7z m34.1 -6.6 c1.9 -1.9 3.4 -4.2 3.4 -5.1 0 -0.9 -1.5 -3.2 -3.4 -5.1 l-3.4 -3.4 -13.3 0 c-7.4 0 -14.6 0.5 -16.4 1.1 -6 2.2 -7.1 10.8 -1.7 14.1 2.1 1.3 5.6 1.6 17.1 1.7 l14.3 0.1 3.4 -3.4z"/>
  <path d="M381 247 c0 -1.3 0.7 -2 1.9 -2 2.4 0 8.1 -5.6 8.1 -7.9 0 -2.6 -3.5 -6.6 -6.9 -8.1 -2 -0.8 -7.3 -1.1 -16.3 -0.8 -13 0.3 -13.5 0.4 -16.1 3 -3.2 3.2 -3.4 6.6 -0.7 10.1 2.5 3.2 2.6 5.7 0.1 5.7 -3.1 0 -6.1 -5.1 -6.1 -10.4 0 -3.8 0.5 -5.1 3.5 -8 4.2 -4.2 9.1 -5 26.3 -4.4 12.8 0.4 16 1.6 18.8 6.9 1.8 3.6 1.8 7.3 -0.2 11.4 -2.5 5.4 -12.4 8.9 -12.4 4.5z"/>
  <path d="M428.9 247.5 c-3.9 -2.1 -5.9 -5.9 -5.9 -11.1 0 -3.9 0.5 -5.1 3.3 -7.9 4.1 -4.1 9.4 -4.9 26.5 -4.3 13.1 0.5 15.9 1.5 18.6 7.3 2 4.2 2 6.8 0 11 -2.5 5.4 -12.4 8.9 -12.4 4.5 0 -1.3 0.7 -2 1.9 -2 2.1 0 8.1 -5.4 8.1 -7.3 -0.1 -3.4 -1.5 -5.6 -5 -7.6 -3.3 -1.8 -5.4 -2.1 -15.8 -2.1 -6.6 0 -13.2 0.4 -14.5 0.9 -3.6 1.4 -6.7 5.1 -6.7 7.9 0 2.9 5.1 8.2 7.9 8.2 1.4 0 2.1 0.6 2.1 2 0 2.4 -4.1 2.7 -8.1 0.5z"/>
  <path d="M354.7 204.3 c-1.5 -0.2 -4.3 -2 -6.2 -3.9 -3 -2.9 -3.5 -4.2 -3.5 -8 0 -2.5 0.7 -5.6 1.6 -7 3.3 -5 12.4 -7.5 12.4 -3.4 0 1.4 -0.7 2 -2.1 2 -2.9 0 -7.9 5.3 -7.9 8.5 0 1.5 1.1 3.7 2.7 5.3 2.6 2.6 3.1 2.7 16.1 3 9 0.3 14.3 0 16.3 -0.8 3.4 -1.5 6.9 -5.5 6.9 -8.1 0 -2.3 -5.7 -7.9 -8.1 -7.9 -1.2 0 -1.9 -0.7 -1.9 -2 0 -4.4 9.9 -0.9 12.4 4.5 3 6.2 1.3 12.4 -4.1 16.1 -2.4 1.6 -5 1.9 -17.3 2 -8 0.1 -15.8 0 -17.3 -0.3z"/>
  <path d="M432 204 c-5.3 -1.3 -9 -6 -9 -11.6 0 -2.5 0.7 -5.6 1.6 -7 3.3 -5 12.4 -7.5 12.4 -3.4 0 1.4 -0.7 2 -2.1 2 -2.8 0 -7.9 5.3 -7.9 8.2 0 2.8 3.1 6.5 6.7 7.9 1.3 0.5 7.9 0.9 14.5 0.9 10.4 0 12.5 -0.3 15.8 -2.1 3.5 -2 4.9 -4.2 5 -7.6 0 -1.9 -6 -7.3 -8.1 -7.3 -1.2 0 -1.9 -0.7 -1.9 -2 0 -4.4 9.9 -0.9 12.4 4.5 2 4.2 2 6.8 0 11 -2.9 6.2 -5.2 6.9 -21.4 7.2 -8 0.1 -16.1 -0.2 -18 -0.7z"/>
  <path d="M352.4 158.6 c-8.9 -3.9 -10 -16.4 -2 -21.7 3.2 -2.2 32 -2.6 36.9 -0.5 4.2 1.7 7.7 6.8 7.7 11.1 0 4.3 -3.5 9.4 -7.5 11.1 -4.6 1.9 -30.6 1.9 -35.1 0z m34.9 -5.3 c5.5 -4.2 5.1 -8.2 -1.3 -12.6 -3.6 -2.5 -28.5 -2.5 -32.9 0.1 -3.6 2 -4.8 6 -3 10.1 1.8 4.1 4.8 4.9 20 5 13.3 0.1 13.6 0.1 17.2 -2.6z"/>
  <path d="M431.3 159.3 c-1.2 -0.2 -3.6 -2 -5.3 -3.9 -4.8 -5.5 -3.7 -14.5 2.4 -18.5 3.2 -2.2 32 -2.6 36.9 -0.5 4.3 1.7 7.7 6.8 7.7 11.2 0 4.3 -3.9 9.7 -8 11.1 -3.3 1.1 -28.6 1.6 -33.7 0.6z m34.3 -6.7 c1.9 -1.9 3.4 -4.2 3.4 -5.1 0 -0.9 -1.5 -3.2 -3.4 -5.1 l-3.4 -3.4 -14 0 c-15.8 0 -19.6 1.2 -20.8 6.3 -0.8 3.6 1.4 8.2 4.5 9.5 1.4 0.5 8.8 1 16.5 1.1 l13.8 0.1 3.4 -3.4z"/>
 </g>
 <g fill="#81b0fe">
  <path d="M206.9 478.7 c-6.9 -4.6 -6.9 -4.5 -6.9 -49.8 0 -40.5 0 -40.6 2.2 -43.9 1.3 -1.8 3.6 -4.3 5.1 -5.4 2.8 -2 3.9 -2.1 36.2 -2.1 37.9 0 36.8 -0.2 41.3 8.5 2.2 4.4 2.2 5 2.2 42.5 0 22.6 -0.4 39.5 -1 41.7 -0.6 2.1 -2.7 5.1 -5 7.2 l-4 3.6 -33.4 0 c-33 0 -33.3 0 -36.7 -2.3z"/>
  <path d="M199.1 357.7 c-8 -4.1 -8.6 -16.3 -0.9 -20.3 2.2 -1.2 12 -1.4 56.3 -1.4 58.1 0 57.5 -0.1 60.5 5.5 3.1 5.7 0.7 13.2 -5.1 16.2 -1.8 1 -15.3 1.3 -55.4 1.3 -40.1 0 -53.6 -0.3 -55.4 -1.3z"/>
  <path d="M201.3 320.3 c-3.2 -0.6 -7.9 -5.6 -8.6 -9 -0.7 -3.9 1.4 -9.3 4.6 -11.7 2.8 -2.1 3.6 -2.1 57.2 -2.1 53.6 0 54.4 0 57.2 2.1 6.1 4.5 6.1 14.3 0 18.8 -2.8 2.1 -3.7 2.1 -55.5 2.2 -29 0.1 -53.7 0 -54.9 -0.3z"/>
  <path d="M427.1 290.1 c-3.8 -3.5 -3.9 -5.1 -0.6 -5.1 1.8 0 2.5 0.5 2.5 2 0 1.5 0.7 2 2.5 2 1.8 0 2.5 0.5 2.5 2 0 2.9 -3.2 2.5 -6.9 -0.9z"/>
  <path d="M388 289.1 c0 -1.6 0.6 -3.1 1.3 -3.4 0.8 -0.2 1.1 -2.3 0.9 -6.8 l-0.2 -6.4 2.1 2.2 c3.9 3.8 2.7 13.1 -2.2 16.1 -1.7 1.1 -1.9 0.9 -1.9 -1.7z"/>
  <path d="M355.8 247.3 c-3.3 -0.8 -2 -3.3 1.7 -3.3 2.8 0 3.5 0.4 3.5 2 0 2 -1.4 2.3 -5.2 1.3z"/>
  <path d="M469 237.5 c0 -2.3 0.5 -3.5 1.4 -3.5 1.8 0 2.6 2.2 1.9 4.9 -0.9 3.5 -3.3 2.5 -3.3 -1.4z"/>
  <path d="M345 236.4 c0 -2.6 2.8 -7.8 5 -9.2 1.8 -1.1 2 -1 2 1.8 0 2 -0.5 3 -1.5 3 -1 0 -1.5 1 -1.5 3 0 2.3 -0.4 3 -2 3 -1.2 0 -2 -0.7 -2 -1.6z"/>
  <path d="M423 236.4 c0 -2.6 2.8 -7.8 5 -9.2 1.8 -1.1 2 -1 2 1.8 0 2 -0.5 3 -1.5 3 -1 0 -1.5 1 -1.5 3 0 2.3 -0.4 3 -2 3 -1.2 0 -2 -0.7 -2 -1.6z"/>
  <path d="M382 227 c0 -2.2 2 -2.6 5.1 -1 3 1.6 2.3 3 -1.6 3 -2.8 0 -3.5 -0.4 -3.5 -2z"/>
  <path d="M460 227 c0 -2.2 2 -2.6 5.1 -1 3 1.6 2.3 3 -1.6 3 -2.8 0 -3.5 -0.4 -3.5 -2z"/>
  <path d="M382 202 c0 -1.6 0.7 -2 3.5 -2 3.9 0 4.6 1.4 1.6 3 -3.1 1.6 -5.1 1.2 -5.1 -1z"/>
  <path d="M460 202 c0 -1.6 0.7 -2 3.5 -2 3.9 0 4.6 1.4 1.6 3 -3.1 1.6 -5.1 1.2 -5.1 -1z"/>
  <path d="M349.1 200.9 c-4.1 -3.8 -5.4 -9.9 -2.1 -9.9 1.6 0 2 0.7 2 3 0 2 0.5 3 1.5 3 1 0 1.5 1 1.5 3 0 3.6 0 3.6 -2.9 0.9z"/>
  <path d="M427.1 200.9 c-4.1 -3.8 -5.4 -9.9 -2.1 -9.9 1.6 0 2 0.7 2 3 0 2 0.5 3 1.5 3 1 0 1.5 1 1.5 3 0 3.6 0 3.6 -2.9 0.9z"/>
  <path d="M469 191.5 c0 -3.9 2.4 -4.9 3.3 -1.4 0.7 2.7 -0.1 4.9 -1.9 4.9 -0.9 0 -1.4 -1.2 -1.4 -3.5z"/>
  <path d="M390.2 150.1 c0.2 -4.5 -0.1 -6.6 -0.9 -6.8 -0.7 -0.3 -1.3 -1.8 -1.3 -3.4 0 -2.6 0.2 -2.8 1.9 -1.7 4.9 3 6.1 12.3 2.2 16.1 l-2.1 2.2 0.2 -6.4z"/>
  <path d="M345.6 150.8 c-1 -3.8 -0.7 -4.8 1.4 -4.8 1.6 0 2 0.7 2 3.5 0 4 -2.4 4.9 -3.4 1.3z"/>
  <path d="M346 142.9 c0 -1.8 6 -6.9 8.1 -6.9 1.2 0 1.9 0.7 1.9 2 0 1.5 -0.7 2 -2.5 2 -1.8 0 -2.5 0.5 -2.5 2 0 1.5 -0.7 2 -2.5 2 -1.4 0 -2.5 -0.5 -2.5 -1.1z"/>
  <path d="M424 142.9 c0 -1.8 6 -6.9 8.1 -6.9 1.2 0 1.9 0.7 1.9 2 0 1.5 -0.7 2 -2.5 2 -1.8 0 -2.5 0.5 -2.5 2 0 1.5 -0.7 2 -2.5 2 -1.4 0 -2.5 -0.5 -2.5 -1.1z"/>
 </g>
 <g fill="#f2e99f">
  <path d="M56.8 293.3 c-3.6 -0.6 -8.4 -5.4 -9.1 -9.1 -1.4 -6.7 3.9 -14.2 10 -14.2 3.5 0 3.1 3.7 -0.5 4.5 -1.8 0.3 -3.4 1.8 -4.6 4 -1.8 3.3 -1.8 3.4 0.3 6.3 3.2 4.6 6.6 5.5 19.5 5.1 10.7 -0.4 11.5 -0.6 13.5 -2.9 1.1 -1.4 2.3 -3.3 2.7 -4.3 0.7 -2.3 -3.5 -8.7 -5.8 -8.7 -1.1 0 -1.8 -0.8 -1.8 -2 0 -4.3 7.8 -1.2 10.6 4.1 2.8 5.5 1 11.9 -4.3 15.5 -2.3 1.5 -5 1.8 -15.3 2 -6.9 0.1 -13.7 0 -15.2 -0.3z"/>
  <path d="M122.8 293.3 c-3.6 -0.6 -8.4 -5.4 -9.1 -9.1 -1.4 -6.7 3.9 -14.2 10 -14.2 3.5 0 3.1 3.7 -0.5 4.5 -1.8 0.3 -3.4 1.8 -4.6 3.9 -1.7 3.2 -1.7 3.5 0 6 2.6 4 6.5 5.6 13.9 5.6 5.8 0 6.5 0.2 6.5 2 0 1.8 -0.6 2 -6.7 1.9 -3.8 -0.1 -8 -0.4 -9.5 -0.6z"/>
  <path d="M135 271.6 c0 -0.7 0.9 -1.6 2 -1.9 1.5 -0.4 2 0 2 1.4 0 1.2 -0.7 1.9 -2 1.9 -1.1 0 -2 -0.6 -2 -1.4z"/>
  <path d="M55.3 247.9 c-5.8 -1.7 -9.4 -9.4 -7 -15.1 1.9 -4.4 4.7 -6.8 9.1 -7.5 3.2 -0.5 3.6 -0.3 3.6 1.6 0 1.1 -0.6 2.1 -1.3 2.1 -2.8 0 -6.5 2.5 -7.5 5.2 -1.4 3.8 -0.6 6 3.2 8.6 2.9 2 4.4 2.2 15.9 2.2 7.8 0 12.7 -0.4 12.7 -1 0 -0.5 0.6 -1 1.3 -1 1.8 0 4 -5.6 3.1 -8.2 -1 -3.1 -2.8 -4.7 -6.3 -5.4 -2.1 -0.5 -3.1 -1.2 -3.1 -2.5 0 -4.5 9.9 -0.7 12.5 4.8 3.1 6.5 0.5 13.1 -6.2 15.9 -3.7 1.6 -24.8 1.8 -30 0.3z"/>
  <path d="M121 247.9 c-3.9 -1.6 -5.9 -3.9 -7 -8 -1.9 -6.8 2.4 -13.4 9.4 -14.6 3.2 -0.5 3.6 -0.3 3.6 1.6 0 1.1 -0.6 2.1 -1.3 2.1 -2.9 0 -6.5 2.6 -7.5 5.3 -1.3 3.5 -0.5 5.6 3.4 8.6 2.4 1.9 4 2.1 14.3 2.1 11.7 0 17.1 -1.2 17.1 -3.7 0 -0.7 0.5 -1.3 1.1 -1.3 1.6 0 0.4 -6.6 -1.5 -8.5 -0.8 -0.9 -2.9 -1.8 -4.5 -2.1 -2.1 -0.5 -3.1 -1.2 -3.1 -2.5 0 -4.4 9.9 -0.7 12.4 4.6 2 4.1 2 6.8 0.2 10.3 -3.2 6.2 -4.5 6.7 -20 6.9 -8 0.2 -15.2 -0.2 -16.6 -0.8z"/>
  <path d="M53.3 202 c-4 -2.4 -5.6 -5.3 -5.6 -10.1 0 -5 3.4 -9.6 8.1 -10.9 5.5 -1.5 25.6 -1.3 29.5 0.4 6.7 2.8 9.3 9.4 6.2 15.9 -2.6 5.5 -12.5 9.3 -12.5 4.8 0 -1.3 1 -2 3.1 -2.5 3.5 -0.7 5.3 -2.3 6.3 -5.4 0.9 -2.6 -1.3 -8.2 -3.1 -8.2 -0.7 0 -1.3 -0.4 -1.3 -1 0 -0.6 -4.9 -1 -12.7 -1 -11.5 0 -13 0.2 -15.9 2.2 -1.8 1.3 -3.5 3.1 -3.8 4 -0.6 2.5 1.5 7.8 3.1 7.8 0.7 0 1.3 0.5 1.3 1 0 0.6 1.1 1 2.5 1 1.8 0 2.5 0.5 2.5 2 0 2.6 -3.4 2.6 -7.7 0z"/>
  <path d="M120.1 202.7 c-9.1 -4.6 -8.4 -18.1 1 -21.4 5 -1.7 26.1 -1.6 30.4 0.1 3.8 1.6 7.5 6.8 7.5 10.4 0 6.1 -5.9 12.2 -11.9 12.2 -3.5 0 -2.7 -3.6 1 -4.4 1.6 -0.3 3.7 -1.2 4.5 -2.1 1.9 -1.9 3.1 -8.5 1.5 -8.5 -0.6 0 -1.1 -0.6 -1.1 -1.3 0 -2.3 -6.5 -3.7 -17.7 -3.7 -9.7 0 -11.4 0.3 -13.7 2.1 -3.9 3 -4.7 5.1 -3.4 8.6 1 2.7 4.6 5.3 7.5 5.3 0.7 0 1.3 0.9 1.3 2 0 2.3 -3.1 2.7 -6.9 0.7z"/>
  <path d="M57.5 159.1 c-6.8 -1.7 -10 -5.7 -9.9 -12 0.1 -2.1 0.9 -4.9 1.8 -6.3 3 -4.6 5.8 -5.3 21 -5.3 12.2 0 14.5 0.3 16.9 1.9 5.3 3.6 7.1 10 4.3 15.5 -2.8 5.4 -5.9 6.5 -19.1 6.8 -6.6 0.1 -13.3 -0.1 -15 -0.6z m24.2 -3.7 c3.5 -0.7 7.8 -6.4 6.9 -9.1 -0.4 -1 -1.6 -2.9 -2.7 -4.3 -2 -2.3 -2.8 -2.5 -13.5 -2.9 -12.9 -0.4 -16.3 0.5 -19.5 5.1 -2.1 2.9 -2.1 3 -0.3 6.3 1.1 2 3 3.7 4.8 4.3 3.5 1.1 19.7 1.5 24.3 0.6z"/>
  <path d="M123.5 159.1 c-6.8 -1.7 -10 -5.7 -9.9 -12 0.1 -2.1 0.9 -4.9 1.8 -6.3 3 -4.6 5.8 -5.3 21 -5.3 13.1 0 14.3 0.2 17.3 2.3 6.5 4.6 6.6 14.7 0.1 19.4 -2.8 2 -4.6 2.3 -15.3 2.5 -6.6 0.1 -13.3 -0.1 -15 -0.6z m24.2 -3.7 c3.5 -0.7 7.8 -6.4 6.9 -9.1 -0.4 -1 -1.6 -2.9 -2.7 -4.3 -2 -2.3 -2.8 -2.5 -13.5 -2.9 -12.9 -0.4 -16.3 0.5 -19.5 5.1 -2.1 2.9 -2.1 3 -0.4 6.2 1 1.8 3 3.8 4.4 4.4 2.8 1.1 20.1 1.5 24.8 0.6z"/>
 </g>
 <g fill="#b1eaf1">
  <path d="M135 281.5 c0 -10.8 0.1 -11.5 2 -11.5 1.9 0 2 0.7 2 11.5 0 10.8 -0.1 11.5 -2 11.5 -1.9 0 -2 -0.7 -2 -11.5z"/>
  <path d="M371 281.5 l0 -11.5 7.9 0 c7.1 0 8.3 0.3 11 2.6 5.7 4.8 5.8 12.5 0.1 17.7 -2.8 2.5 -3.7 2.7 -11 2.7 l-8 0 0 -11.5z"/>
  <path d="M428.9 291.5 c-2.7 -1.5 -5.9 -6.9 -5.9 -10 0 -3.2 3.3 -8.6 6.1 -10 2.1 -1.1 6.8 -1.5 19.3 -1.5 16.2 0 16.5 0 19.5 2.6 5.7 4.8 5.8 12.5 0.1 17.7 l-3 2.7 -16.8 0 c-12.5 -0.1 -17.4 -0.4 -19.3 -1.5z"/>
  <path d="M360.8 248.5 c-0.4 -0.4 -3 -1 -5.9 -1.4 -6.6 -0.8 -9.4 -4 -9.3 -10.8 0.1 -3.6 0.7 -5.1 3.3 -7.6 l3.1 -3.2 15.9 -0.3 c17.5 -0.4 21.5 0.5 24.6 5.2 2.1 3.2 2.3 8.7 0.5 12 -2.7 5.1 -5.5 6 -19 6.4 -6.9 0.2 -12.8 0.1 -13.2 -0.3z"/>
  <path d="M431.1 247.7 c-8 -2.9 -10.2 -13 -4.2 -19 l3.1 -3.2 15.9 -0.3 c17.5 -0.4 21.5 0.5 24.6 5.2 2.1 3.2 2.2 9.8 0.2 12.7 -3.5 4.9 -5.3 5.4 -21.2 5.6 -10 0.2 -16.1 -0.1 -18.4 -1z"/>
  <path d="M352.5 203 c-6.6 -2.7 -9.2 -11.9 -4.9 -17.7 3.4 -4.5 8 -5.5 24.4 -5.1 11.8 0.2 15 0.6 17.1 2.1 7.7 5.2 6.7 16.8 -1.6 20.3 -3.8 1.6 -31.4 1.9 -35 0.4z"/>
  <path d="M430.5 203 c-6.6 -2.7 -9.2 -11.9 -4.9 -17.7 3.4 -4.5 8 -5.5 24.4 -5.1 15.3 0.3 17.3 0.9 20.7 5.7 2 2.9 1.9 9.5 -0.2 12.7 -2.9 4.5 -7 5.4 -23.2 5.3 -8.1 0 -15.7 -0.4 -16.8 -0.9z"/>
  <path d="M351.2 157.7 c-5.2 -2.9 -7.3 -9.7 -4.6 -15.2 2.7 -5.8 5.1 -6.5 23.8 -6.5 16.2 0 16.5 0 19.5 2.6 5.7 4.8 5.8 12.5 0.1 17.7 l-3 2.7 -16.8 0 c-11.5 -0.1 -17.4 -0.5 -19 -1.3z"/>
  <path d="M428.9 157.5 c-2.7 -1.5 -5.9 -6.9 -5.9 -10 0 -3.2 3.3 -8.6 6.1 -10 2.1 -1.1 6.8 -1.5 19.3 -1.5 16.2 0 16.5 0 19.5 2.6 5.7 4.8 5.8 12.5 0.1 17.7 l-3 2.7 -16.8 0 c-12.5 -0.1 -17.4 -0.4 -19.3 -1.5z"/>
 </g>
 <g fill="#eff3c2">
  <path d="M53.9 291.5 c-8.7 -4.8 -7.5 -17.7 1.9 -20.6 2.2 -0.6 9.1 -0.9 16.9 -0.7 12.3 0.3 13.3 0.5 15.7 2.7 5 4.7 5.1 12.1 0.1 17.1 -2.5 2.4 -3 2.5 -17.3 2.7 -11.4 0.2 -15.3 0 -17.3 -1.2z"/>
  <path d="M119.9 291.5 c-8.2 -4.5 -7.8 -16.6 0.8 -20.1 1.8 -0.8 6.4 -1.4 10.3 -1.4 l7 0 0 11.5 0 11.5 -7.7 0 c-4.8 -0.1 -8.8 -0.6 -10.4 -1.5z"/>
  <path d="M51.4 244.6 c-3.8 -3.8 -4.5 -8.5 -2 -13.4 2.5 -4.9 5.5 -5.7 21.2 -5.7 16.1 0 18.8 1 21.1 7.6 1.5 4.7 0.6 8.4 -2.9 11.9 l-3 3 -15.5 0 -15.5 0 -3.4 -3.4z"/>
  <path d="M117.4 244.6 c-3.8 -3.8 -4.5 -8.5 -2 -13.4 2.5 -4.9 5.5 -5.7 21.2 -5.7 16.1 0 18.8 1 21.1 7.6 1.5 4.7 0.6 8.4 -2.9 11.9 l-3 3 -15.5 0 -15.5 0 -3.4 -3.4z"/>
  <path d="M57 203.4 c-6.4 -2.3 -9 -5.7 -9 -12 0 -2.8 0.8 -4.4 3.4 -7 l3.4 -3.4 15.5 0 15.5 0 3 3 c3.5 3.5 4.4 7.2 2.9 11.9 -2.2 6.4 -5.1 7.6 -20 7.8 -7.3 0.1 -13.9 0 -14.7 -0.3z"/>
  <path d="M123 203.3 c-6.2 -2 -9 -5.6 -9 -11.9 0 -2.8 0.8 -4.4 3.4 -7 l3.4 -3.4 14.6 0 c16 0 19.1 0.8 21.6 5.5 3.3 6.1 0.4 13.9 -6.1 16.2 -3.3 1.2 -24.8 1.7 -27.9 0.6z"/>
  <path d="M54.5 157.6 c-8.8 -3.9 -8.5 -16.9 0.4 -20.5 1.9 -0.9 7.5 -1.1 16.9 -0.9 13.3 0.3 14.2 0.4 16.6 2.7 5 4.7 5.1 12.1 0.1 17.1 -2.5 2.4 -3 2.5 -16.8 2.7 -10.3 0.2 -15 -0.1 -17.2 -1.1z"/>
  <path d="M119.9 157.5 c-8.2 -4.5 -7.6 -16.9 1 -20.4 1.9 -0.9 7.5 -1.1 16.9 -0.9 13.3 0.3 14.2 0.4 16.6 2.7 5 4.7 5.1 12.1 0.1 17.1 -2.5 2.4 -3 2.5 -17.3 2.7 -11.4 0.2 -15.3 0 -17.3 -1.2z"/>
 </g>
</svg>