<?xml version="1.0" encoding="utf-8"?>
<!DOCTYPE svg PUBLIC "-//W3C//DTD SVG 1.0//EN" "http://www.w3.org/TR/2001/REC-SVG-20010904/DTD/svg10.dtd">
<svg version="1.0" xmlns="http://www.w3.org/2000/svg" width="512px" height="512px" viewBox="0 0 512 512" preserveAspectRatio="xMidYMid meet">
 <g fill="#feded0">
  <path d="M204 461.5 c0 -0.8 -0.9 -1.5 -2 -1.5 -1.9 0 -2 -0.7 -2 -10.5 l0 -10.5 3.5 0 3.5 0 0 12 c0 10 -0.2 12 -1.5 12 -0.8 0 -1.5 -0.7 -1.5 -1.5z"/>
  <path d="M201 433.9 c0 -4.1 2 -11.9 3.1 -11.9 0.5 0 0.9 -0.9 0.9 -1.9 0 -3 1.1 -5.1 2.6 -5.1 0.8 0 1.4 -1 1.4 -2.5 0 -1.6 0.6 -2.5 1.5 -2.5 0.8 0 1.5 -0.9 1.5 -2 0 -1.6 0.7 -2 3.5 -2 3.3 0 3.5 -0.2 3.5 -3.5 0 -3.3 0.2 -3.5 3.5 -3.5 3.3 0 3.5 0.2 3.5 3.5 0 3.3 -0.2 3.5 -3.5 3.5 -3.3 0 -3.5 0.2 -3.5 3.5 0 2.4 -0.5 3.5 -1.5 3.5 -0.8 0 -1.5 0.9 -1.5 2 0 1.1 -0.7 2 -1.5 2 -0.9 0 -1.5 0.9 -1.5 2.4 0 1.4 -0.6 3.1 -1.3 3.8 -0.7 0.7 -2 4.1 -2.7 7.6 -1.4 6.1 -1.5 6.2 -4.7 6.2 -3 0 -3.3 -0.3 -3.3 -3.1z"/>
  <path d="M23.8 421.5 c-9.7 -3.6 -18.2 -12.3 -21.5 -21.8 -1.7 -4.9 -1.8 -11.2 -1.8 -101.7 l0 -96.5 2.3 -8 c2.9 -10.3 7.7 -20.4 13.4 -28 2.5 -3.3 33.9 -35.9 69.7 -72.5 l65.1 -66.5 0 -13.2 0 -13.3 54 0 54 0 0 45.5 c0 29.7 -0.3 45.5 -1 45.5 -0.5 0 -1 -0.4 -1 -1 0 -0.5 -0.4 -1 -0.9 -1 -0.4 0 -1.1 4.2 -1.4 9.3 -1 15.8 -7.9 35.3 -17.8 49.9 -4.3 6.3 -112.4 116.6 -119.7 122.1 l-3.7 2.8 -5.6 -5.8 c-6.6 -7.1 -9.5 -12.8 -11 -22.4 -0.9 -5.4 -1 -8.9 -0.1 -14.5 2 -12.8 3.8 -15.3 32.8 -44.4 29.1 -29.4 30.5 -31.2 27.8 -38.1 -2 -4.9 -8.4 -9.9 -12.6 -9.9 -1.6 0 -4.1 0.6 -5.6 1.4 -3.7 2 -55.2 54 -58.9 59.6 -6.7 10 -10.4 19.5 -12.4 31.9 -1.1 6.9 0.7 20.4 3.6 27.4 1.9 4.5 2.1 9.7 0.3 7.9 -0.7 -0.7 -1.5 -1.2 -2 -1.2 -0.4 0 -0.9 30 -1 66.8 l-0.3 66.7 -2.7 5.2 c-4 7.6 -7.9 11.5 -15 15.3 -5.5 3 -7.4 3.4 -14.8 3.7 -5.6 0.2 -9.8 -0.2 -12.2 -1.2z"/>
  <path d="M318.7 356.9 c-4.4 -1 -11.3 -4.4 -12.3 -6 -0.3 -0.6 0 -1.5 0.7 -2 1.1 -0.6 0.3 -1.9 -3.3 -5.6 -15 -15.6 -15 -39 0.3 -54.3 6.4 -6.4 14.5 -10.2 23.2 -10.8 l6.7 -0.5 0 40.2 0 40.1 -5.7 -0.1 c-3.2 -0.1 -7.5 -0.5 -9.6 -1z"/>
  <path d="M171.3 334.3 c-1.8 -0.2 -3.3 -0.8 -3.3 -1.4 0 -0.5 -1.1 -0.9 -2.4 -0.9 -4.4 0 -5.6 -1 -5.6 -4.6 0 -3.2 0.2 -3.4 3.4 -3.4 1.9 0 4.1 0.6 4.9 1.4 0.8 0.8 4.2 1.8 7.6 2.2 l6.1 0.7 0 3.3 c0 3.3 -0.1 3.4 -3.7 3.2 -2.1 0 -5.3 -0.3 -7 -0.5z"/>
 </g>
 <g fill="#fecdbf">
  <path d="M466.8 421.7 c-9.9 -3.8 -15.7 -8.8 -20.6 -18.1 l-2.7 -5.1 -0.3 -66.7 c-0.1 -36.8 -0.6 -66.8 -1 -66.8 -0.5 0 -1.3 0.5 -2 1.2 -1.9 1.9 -1.5 -2.9 0.8 -9.5 6.5 -18.5 3.2 -39.1 -9.3 -57.7 -3.8 -5.6 -55.2 -57.6 -58.9 -59.6 -1.5 -0.8 -4 -1.4 -5.6 -1.4 -4.2 0 -10.6 5 -12.6 9.9 -2.7 6.9 -1.3 8.7 27.8 38.1 19.5 19.6 27.1 27.9 29 31.7 3.6 7.3 5.1 18.1 3.7 27.2 -1.5 9.5 -4.3 15.2 -11 22.4 l-5.6 5.8 -3.7 -2.8 c-7.4 -5.6 -115.4 -115.8 -119.7 -122.1 -10.2 -15.1 -16.6 -33.4 -18.1 -52.2 -0.5 -6.3 -1 -30.5 -1 -53.7 l0 -42.3 52.5 0 52.5 0 0 13.3 0 13.2 65.6 67 c36.1 36.9 67.6 69.7 70 73.1 5.5 7.7 9.7 16.7 12.6 26.9 l2.3 8 0 97 0 97 -2.4 6 c-2.9 7.2 -10.9 15.6 -17.8 18.7 -6 2.7 -19.1 3.5 -24.5 1.5z"/>
  <path d="M321 356.1 c0 -2 0.4 -2.1 5 -1.5 l5 0.7 0 -38.8 0 -38.8 5.5 0.6 c16.1 1.6 29.4 14.7 32.6 31.9 2.2 11.7 -1.9 24.3 -10.8 33.5 -2.5 2.6 -4.1 4.9 -3.5 5.1 2.7 0.9 0.8 3.2 -4.5 5.8 -5.1 2.5 -7.2 2.9 -17.5 3.2 -11.5 0.4 -11.8 0.4 -11.8 -1.7z"/>
  <path d="M306 350.6 c0 -2 2.8 -2.8 5 -1.3 2.9 1.8 2.4 2.7 -1.5 2.7 -2.3 0 -3.5 -0.5 -3.5 -1.4z"/>
  <path d="M86.3 275.6 c-8.9 -2.8 -16.2 -9.3 -18.6 -16.6 -4.2 -12.7 -4.4 -27.3 -0.6 -41.1 4.6 -16.7 9.7 -23.4 42.1 -55.6 22.9 -22.7 26.9 -26.3 30.6 -27.3 14.1 -3.7 26.3 10.3 20.7 23.8 -1.1 2.4 -10.9 13 -27.9 30.2 -28.2 28.3 -30.5 31.3 -32.5 42.6 -2.2 11.7 1.6 22.8 11.1 33 l5.8 6.2 -3.2 2 c-6.9 4.2 -19 5.4 -27.5 2.8z"/>
 </g>
 <g fill="#febeac">
  <path d="M305 441.3 c0 -1.6 -0.3 -5.2 -0.6 -8 l-0.7 -5.3 3.5 0 c3.5 0 3.5 0 4.2 5.3 1.2 10.2 1 10.7 -2.9 10.7 -3.1 0 -3.5 -0.3 -3.5 -2.7z"/>
  <path d="M301 423 c0 -2 -0.5 -3 -1.5 -3 -1 0 -1.5 -1 -1.5 -3 0 -2.3 -0.4 -3 -2 -3 -1.6 0 -2 -0.7 -2 -3.5 0 -3.3 0.2 -3.5 3.5 -3.5 3.2 0 3.5 0.2 3.5 3 0 2.3 0.4 3 2 3 1.6 0 2 0.7 2 3 0 2 0.5 3 1.5 3 1 0 1.5 1.1 1.5 3.5 0 3.3 -0.2 3.5 -3.5 3.5 -3.2 0 -3.5 -0.2 -3.5 -3z"/>
  <path d="M281 398.5 c0 -3.3 0.2 -3.5 3.5 -3.5 3.3 0 3.5 0.2 3.5 3.5 0 3.3 -0.2 3.5 -3.5 3.5 -3.3 0 -3.5 -0.2 -3.5 -3.5z"/>
  <path d="M322.5 358 c-7 -1 -15.5 -4.8 -15.5 -7 0 -2.9 1 -2.9 7.7 0.2 4.5 2.2 8.6 3.2 13.4 3.6 5.9 0.4 6.9 0.7 6.9 2.3 0 2.1 -3 2.3 -12.5 0.9z"/>
  <path d="M336 356.6 c0 -0.8 1.8 -1.8 4.3 -2.4 2.3 -0.6 6.3 -2.2 8.9 -3.6 4.8 -2.6 5.8 -2.5 5.8 0.6 0 1.3 -0.8 1.8 -3 1.8 -2 0 -3 0.5 -3 1.5 0 1 -1 1.5 -3 1.5 -1.6 0 -3 0.5 -3 1 0 0.6 -1.6 1 -3.5 1 -2.3 0 -3.5 -0.5 -3.5 -1.4z"/>
  <path d="M404.1 275.4 c-2.5 -0.9 -5.5 -2.3 -6.8 -3.1 l-2.3 -1.5 5.8 -6.3 c9.4 -10 13 -20.7 11.1 -32.8 -1.8 -11.1 -4.2 -14.3 -32.5 -42.7 -26.7 -26.9 -29.4 -30.4 -29.4 -37.2 0.1 -5.2 3.4 -11.4 7.7 -14.1 5 -3.3 9.2 -4.1 14.5 -2.7 3.7 1 7.7 4.5 30.1 26.8 14.2 14.2 27.9 28.4 30.4 31.7 11.3 14.8 16.9 35.5 14.4 53.2 -2.2 15.1 -6.5 21.9 -17 27 -6.9 3.4 -19.2 4.2 -26 1.7z"/>
 </g>
 <g fill="#fee570">
  <path d="M217.6 510.9 c-5.4 -1.3 -9.1 -4.2 -11.5 -9.2 -2 -4 -2.1 -6.2 -2.3 -32.3 -0.1 -15.3 -0.4 -23.7 -0.5 -18.6 -0.6 14.4 -2.3 11.1 -2.3 -4.4 0 -15.3 1.4 -22.6 6.1 -31.5 5.6 -10.4 18.8 -21.9 25.2 -21.9 1.6 0 5.7 1.4 9.2 3.1 3.5 1.7 8.6 3.3 11.8 3.6 l5.7 0.6 0 55.8 0 55.9 -18.7 -0.1 c-10.4 -0.1 -20.5 -0.5 -22.7 -1z"/>
 </g>
 <g fill="#8cbcff">
  <path d="M139.1 458.2 c-1.9 -0.9 -4.8 -3.4 -6.5 -5.5 l-3.1 -3.9 0 -43.6 c0 -42.7 0 -43.8 2.3 -50.2 3.8 -11.2 12.9 -22.5 22.4 -27.9 3.7 -2.1 4.5 -3 3.6 -3.9 -2.2 -2.2 3.8 -1.3 8.9 1.3 2.6 1.4 7.6 3 11.1 3.6 l6.2 1.1 0 65.4 0 65.4 -20.7 0 c-17.8 0 -21.3 -0.3 -24.2 -1.8z"/>
  <path d="M200 441 c0 -3.3 0.3 -4 2 -4 2.1 0 2.5 1.6 1.4 5.8 -1.1 3.9 -3.4 2.7 -3.4 -1.8z"/>
  <path d="M204 422.5 c0 -2.4 0.5 -3.5 1.5 -3.5 1 0 1.5 -1 1.5 -3 0 -2.3 0.4 -3 2 -3 1.6 0 2 -0.7 2 -3 0 -2.8 0.3 -3 3.6 -3 l3.6 0 -3 3.1 c-1.7 1.7 -4.4 6 -6.2 9.5 -1.7 3.5 -3.5 6.4 -4.1 6.4 -0.5 0 -0.9 -1.6 -0.9 -3.5z"/>
  <path d="M220 401 c0 -2.7 0.3 -3 3 -3 2.3 0 3 -0.4 3 -2 0 -1.6 0.7 -2 3.5 -2 1.9 0 3.5 0.4 3.5 0.9 0 0.5 -2.5 2.4 -5.5 4.2 -3 1.8 -5.5 3.7 -5.5 4.1 0 0.4 -0.4 0.8 -1 0.8 -0.5 0 -1 -1.3 -1 -3z"/>
 </g>
 <g fill="#fecb6e">
  <path d="M256 457.5 c0 -47.8 -0.2 -54.5 -1.5 -54.5 -0.8 0 -1.5 -0.6 -1.5 -1.4 0 -0.9 1.8 -1.5 5.7 -1.9 3.2 -0.3 8.3 -1.9 11.8 -3.6 3.5 -1.7 7.7 -3.1 9.5 -3.1 6.4 0 18.2 9.9 24.3 20.3 5.1 8.7 6.8 16.1 7.4 31.9 0.6 14.7 0.6 14.8 -1.5 14.8 -2.2 0 -2.2 0.2 -2.2 19 0 16.8 -0.2 19.5 -1.9 22.8 -4.5 8.8 -8.4 10.1 -31.8 10.2 l-18.3 0 0 -54.5z"/>
  <path d="M202 429.5 c0 -2.8 0.4 -3.5 2 -3.5 1.6 0 1.9 0.5 1.6 2.5 -1 5.5 -3.6 6.2 -3.6 1z"/>
  <path d="M213.2 408.4 c0.2 -3.2 0.7 -4 2.6 -4.2 1.4 -0.2 2.2 -1 2.2 -2.3 0 -1.4 0.7 -1.9 2.5 -1.9 1.8 0 2.5 -0.5 2.5 -2 0 -1.5 0.7 -2 2.5 -2 1.6 0 2.5 -0.6 2.5 -1.6 0 -1.4 0.8 -1.6 5.2 -1.1 2.8 0.4 5.4 1 5.7 1.5 0.3 0.5 3.4 1.7 6.8 2.8 4.8 1.4 6.3 2.4 6.3 3.8 0 1.6 -0.5 1.7 -3.7 1.1 -2.1 -0.3 -6.3 -1.8 -9.3 -3.3 -3 -1.4 -6.2 -2.5 -7.2 -2.4 -2.5 0.2 -8.5 4.6 -14 10.3 l-4.9 5.1 0.3 -3.8z"/>
 </g>
 <g fill="#7788fa">
  <path d="M181 396.1 c0 -55.9 -0.2 -64 -1.5 -64.5 -3 -1.1 -1.4 -2.3 4.7 -3.4 3.4 -0.6 8.5 -2.3 11.3 -3.7 5.2 -2.5 12.6 -3.6 9.5 -1.4 -1.1 0.8 -1.2 1.2 -0.2 1.6 3.2 1.3 13.1 9.4 16.2 13.3 1.9 2.4 3.6 3.8 3.8 3.1 0.2 -0.6 0.8 -1.1 1.3 -1.1 1.5 0 1 4.1 -1 7.4 -3.2 5.2 -5.4 14.4 -4.7 19.5 0.9 6.8 5.8 16.4 11 21.6 4.9 4.8 6.3 9.2 2.6 8 -4.1 -1.3 -15.8 8.2 -22.2 17.9 -5.8 8.9 -7.8 16.8 -8.5 32.4 l-0.6 13.2 -10.8 0 -10.9 0 0 -63.9z"/>
 </g>
 <g fill="#ff6667">
  <path d="M308.8 446.3 c-0.5 -11.3 -1 -15 -3 -20.5 -3.3 -8.9 -7.8 -15.7 -14.5 -21.8 -7.2 -6.6 -11.1 -8.6 -13.5 -7.1 -1.5 1 -1.8 0.8 -1.8 -1.2 0 -1.4 1.9 -4.3 4.8 -7.3 7.1 -7.4 10.4 -14.8 11 -24.5 0.3 -4.4 0.9 -8.2 1.3 -8.5 0.5 -0.3 0.9 0.2 0.9 1.1 0 1.4 0.5 1.2 3.1 -0.7 1.7 -1.3 4.9 -3.5 7 -4.9 l4 -2.5 5.8 2.8 c10.7 5.4 23.5 5.4 34.2 0.1 3.9 -2 6.3 -2.6 7.4 -2.1 2.3 1.3 1.8 2.8 -1 2.8 -1.5 0 -2.5 0.6 -2.5 1.4 0 1.5 -6.7 4 -13.7 5.1 l-4.3 0.7 0 50.4 0 50.4 -12.4 0 -12.3 0 -0.5 -13.7z"/>
 </g>
 <g fill="#e62e6c">
  <path d="M331 408.1 l0 -51.9 6.2 -1.1 c3.4 -0.6 8.6 -2.3 11.6 -3.8 l5.3 -2.7 3.7 1.9 c2 1.1 6.5 4.8 10 8.2 6.9 6.8 12.5 17 14.2 26.2 0.5 2.9 1 18 1 33.4 0 26.5 -0.1 28.3 -2.1 32.4 -1.4 2.9 -3.5 5.2 -6.3 6.8 -4.2 2.4 -4.8 2.5 -23.9 2.5 l-19.7 0 0 -51.9z"/>
  <path d="M231.2 394.2 c-2.6 -1.7 -9.2 -9.9 -9.2 -11.3 0 -0.5 1.1 -0.9 2.5 -0.9 1.8 0 2.5 0.5 2.5 2 0 1.1 0.6 2 1.3 2 2.2 0 5.9 4.8 5.5 7.3 -0.3 2.4 -0.4 2.4 -2.6 0.9z"/>
  <path d="M218.1 373.6 c-1.5 -6 -1.4 -6.6 0.8 -6.6 1.9 0 3.1 3.4 3.1 8.6 0 4.1 -2.7 2.7 -3.9 -2z"/>
  <path d="M217 359.8 c0 -3 1.3 -5.8 2.6 -5.8 0.9 0 1.4 1.2 1.4 3.5 0 2.8 -0.4 3.5 -2 3.5 -1.1 0 -2 -0.6 -2 -1.2z"/>
  <path d="M220 348.6 c1.3 -3.4 3.3 -6.6 4.2 -6.6 0.9 0 1.1 5.2 0.2 7.4 -0.3 0.9 -1.7 1.6 -3 1.6 -2.1 0 -2.2 -0.3 -1.4 -2.4z"/>
  <path d="M182 330.1 c0 -1.6 1 -2.1 5.5 -2.6 3 -0.4 5.5 -1.1 5.5 -1.6 0 -0.5 0.9 -0.9 2 -0.9 1.1 0 2 -0.4 2 -1 0 -0.5 1.6 -1 3.5 -1 1.9 0 3.5 0.4 3.5 0.8 0 1.4 -7.4 5.1 -13.5 6.7 -7.6 1.9 -8.5 1.9 -8.5 -0.4z"/>
 </g>
 <g fill="#c48827">
  <path d="M243.3 400.8 c-3.4 -1.1 -7.6 -3.3 -9.5 -4.9 l-3.3 -2.8 3.8 -0.1 c2 0 3.7 0.5 3.7 1 0 0.6 0.7 1 1.5 1 0.8 0 1.5 0.4 1.5 0.8 0 0.5 2.9 1.5 6.5 2.2 5.1 1.1 6.5 1.7 6.5 3.2 0 2.4 -2.8 2.3 -10.7 -0.4z"/>
  <path d="M260 401.3 c0 -1.5 1.2 -2.2 5.2 -3.3 2.9 -0.7 5.8 -1.9 6.6 -2.6 0.7 -0.8 3 -1.4 4.9 -1.4 3.5 0 3.6 0.1 1.9 1.9 -2.1 2.3 -9.6 5.7 -14.8 6.6 -3.3 0.6 -3.8 0.5 -3.8 -1.2z"/>
  <path d="M174.2 330.9 c-7.3 -1.2 -13.8 -4.8 -20 -11 -15.4 -15.5 -15.9 -37.6 -1.1 -53.3 7.1 -7.6 15 -11.6 24.6 -12.4 l6.3 -0.5 0 39.2 0 39.1 -2.2 -0.1 c-1.3 -0.1 -4.7 -0.5 -7.6 -1z"/>
 </g>
 <g fill="#803602">
  <path d="M246 401.4 c-28.2 -7.6 -38.3 -42.4 -18.5 -63.3 7.1 -7.5 19.5 -13.1 29 -13.1 l2.5 0 0 37.1 0 37.1 2.3 -0.5 c9.1 -2.1 12.7 -3.3 12.7 -4.4 0 -0.7 0.4 -1.3 0.9 -1.3 1.2 0 10.1 -8.9 10.1 -10.1 0 -0.5 0.4 -0.9 0.8 -0.9 1 0 5.2 -11.7 5.2 -14.2 0 -1.2 0.8 -1.8 2.1 -1.8 2 0 2.1 0.4 1.5 4.8 -1.3 9.7 -8.6 20.6 -17.5 26.1 -9.7 5.9 -20.1 7.4 -31.1 4.5z"/>
  <path d="M181 292.9 l0 -39.2 5.4 0.6 c11.3 1.1 23.6 9.8 29 20.4 11.6 23.1 -1.8 50.9 -27.2 56.2 -2.9 0.6 -5.7 1.1 -6.2 1.1 -0.6 0 -1 -15.1 -1 -39.1z"/>
 </g>
 <g fill="#552001">
  <path d="M256 364 l0 -39.2 4.7 0.7 c9.5 1.4 15.4 4.4 22.4 11.4 8.7 8.7 11.3 15.1 11.3 27.1 0 6.2 -0.6 9.9 -2.1 13.8 -5.3 13.4 -17 22.5 -31.6 24.7 l-4.7 0.7 0 -39.2z"/>
 </g>
</svg>