<?xml version="1.0" encoding="utf-8"?>
<!-- Generator: Adobe Illustrator 28.2.0, SVG Export Plug-In . SVG Version: 6.00 Build 0)  -->
<svg version="1.1" id="Layer_1" xmlns="http://www.w3.org/2000/svg" xmlns:xlink="http://www.w3.org/1999/xlink" x="0px" y="0px"
	 viewBox="0 0 512 512" style="enable-background:new 0 0 512 512;" xml:space="preserve">
<style type="text/css">
	.st0{fill-rule:evenodd;clip-rule:evenodd;fill:#D4A734;stroke:#000000;stroke-width:2;stroke-miterlimit:10;}
</style>
<path class="st0" d="M223.1,91.5c-24.5,24.2-33.8,32.7-40.3,36.9c-5.7,3.7-9.7,7.2-12.6,11c-2.3,3.1-5.4,6.4-6.8,7.3
	c-1.4,0.9-6.8,6.7-12.1,12.8c-11,12.8-14.5,15.8-22.2,18.6c-15.6,5.7-13.7,4.1-19,15.4c-5.9,12.5-9,16.5-32.1,41.2
	c-11,11.8-17.9,20-17.4,20.5c0.5,0.5,7.6,1,15.9,1.2l15,0.3v95v95l-7,0.5c-6,0.4-8.3,1.2-16.5,5.7c-5.2,2.8-12.3,6-15.8,6.9
	c-3.4,1-6.2,2.1-6.2,2.6s36.3,0.9,80.8,1.1s87.7,0.3,96.2,0.4s66.9-0.1,129.8-0.4c95.7-0.4,114.2-0.7,114.2-1.9
	c0-0.9-1.2-1.4-3.3-1.4c-2,0-8.5-2.5-16.7-6.5c-12.9-6.3-13.7-6.5-21.1-6.5c-5.3,0-7.8-0.4-8.1-1.2c-0.2-0.7-0.1-43.5,0.1-95.2
	l0.5-94l15.4-0.5c9.4-0.3,15.6-0.9,15.8-1.5c0.2-0.6-9.4-10.7-21.2-22.5c-15.2-15.2-23.1-23.8-27-29.6c-4.2-6.4-7.9-10.2-16.7-17.6
	c-12.3-10.3-31.1-29.2-42.7-43.1c-4.2-5-10-10.6-13.5-12.9c-3.3-2.3-20.9-18.6-39.1-36.4C271.4,74.5,256.2,60,255.7,60
	C255.3,60,240.6,74.2,223.1,91.5 M230.2,113.8c-9.5,9.2-17.3,17.2-17.2,17.8c0.1,2.1,4.3,2.3,39.6,2.4c37.6,0,47.8-0.5,46.6-2.4
	c-1.4-2.2-36.2-34.6-37.1-34.6c-0.5,0-1.2,1.2-1.5,2.8c-0.7,3.3-2.6,15.4-2.6,16.5c0,1.1-3.8,0.9-4.4-0.1c-0.3-0.5-1-4.2-1.6-8.2
	c-1.3-9.1-1.8-10.9-3.3-10.8C248,97.1,239.7,104.6,230.2,113.8 M200.7,146.5c-3,1.6-94.3,90.9-95.1,93.2c-0.3,0.9,0.8,1.9,2.9,2.8
	c2.8,1.2,3.5,2,3.5,4.4c0,2.2,0.6,3.1,2.2,3.5c3,0.8,281.1,0.8,283.2,0c1-0.4,1.6-1.8,1.6-3.9c0-2.8,0.5-3.5,3-4.3
	c1.6-0.6,3-1.4,3-1.8c0-1.3-11.7-13.1-49-49.4c-50.5-49.1-46.7-45.9-53.9-45.9c-4.5,0-6,0.4-6.5,1.6c-0.3,0.9-0.6,20-0.6,42.6v41
	l3.1,2.9c1.7,1.6,2.7,2.9,2.2,3c-0.5,0.1-21,0.2-45.6,0.2c-39.2,0.1-44.7,0-44.5-1.3c0.2-0.8,1.2-1.6,2.3-1.8
	c4.4-0.8,4.5-1.4,4.5-44.7c0-30.6-0.3-41.4-1.2-42.3C214.1,144.5,204.1,144.7,200.7,146.5 M245.5,159.8c-3.2,0.6-4.5,3.2-4.5,8.7
	c0,6.7,0.8,7.8,5.6,7.4c3.6-0.3,4-0.6,4.8-3.9C253.2,164.5,250.4,158.8,245.5,159.8 M258.5,162.2c-0.3,1.3-0.5,4.8-0.3,7.8l0.3,5.4
	l3.6,0.3c5,0.4,6.1-1.3,5.7-9l-0.3-6.3l-4.2-0.3C259.6,159.9,259,160.2,258.5,162.2 M228.4,162.4c-0.3,0.7-0.4,4-0.2,7.2
	c0.3,5.8,0.3,5.9,3.6,6.2l3.2,0.3v-6.4c0-3.6-0.5-6.9-1.2-7.6C232.2,160.6,229.1,160.7,228.4,162.4 M277.2,161.7
	c-0.8,0.3-1.2,2.8-1.2,7.3c0,7.1,0.9,8.6,4.2,6.8c2.9-1.5,2-15.1-1-14.8C278.8,161.1,277.9,161.4,277.2,161.7 M261.7,180.7
	c-2.2,0.6-3.7,4.2-3.7,8.8c0,5.6,0.8,6.5,5.5,6.5c5,0,5.5-0.8,5.5-8.4C269,180.7,267.4,179.2,261.7,180.7 M229.1,182.4
	c-0.7,0.8-1.1,3.8-0.9,7.2c0.3,5.6,0.4,5.8,3.2,6.2c1.6,0.2,3.3-0.2,3.7-1c1-1.5,1.1-8.3,0.2-11.6
	C234.7,180.7,230.9,180.2,229.1,182.4 M242.5,183.4c-0.3,1.4-0.8,3.7-1.1,5.1c-0.3,1.4-0.2,3.6,0.1,5.1c0.6,2.3,1,2.5,5.3,2.2
	l4.6-0.3v-7v-7l-4.2-0.3C243.5,180.9,243,181.1,242.5,183.4 M276,188.4c0,7.4,0.1,7.6,2.5,7.6c3,0,3.8-2.4,3.3-9.6
	c-0.3-4.5-0.5-5-3.1-5.2l-2.8-0.3V188.4 M244.2,201c-2,0.8-2.2,1.6-2.2,6.9c0,8.2,0.5,9.1,5.1,9.1c4.8,0,5.9-1.8,5.9-9.2
	C253,200.4,250.5,198.5,244.2,201 M261.5,200.7c-2.9,0.7-3.5,2.1-3.5,7.9c0,5.7,1.7,8.3,5.3,8.3c3.6,0,4.4-1.2,5.1-7.6
	c0.6-5,0.4-6.4-1-7.8C265.8,200,265,199.8,261.5,200.7 M229.4,202.3c-0.3,0.8-0.4,4.1-0.2,7.3c0.3,5.2,0.6,5.9,2.5,6.2
	c3,0.4,4.5-2.8,4.1-9.1c-0.3-4.9-0.5-5.2-3.1-5.5C231,201,229.8,201.4,229.4,202.3 M275.4,202.3c-0.3,0.8-0.4,4.1-0.2,7.3
	c0.3,5.2,0.6,5.9,2.5,6.2c1.8,0.3,2.3-0.3,2.8-3c0.3-1.8,0.5-5.1,0.3-7.3c-0.3-3.2-0.7-4-2.6-4.3C277,201,275.8,201.5,275.4,202.3
	 M104.5,269c-0.7,3.4,0.3,172.5,1.1,175.2c0.5,1.6,4,1.8,56,1.8h55.5l1.1-2.8c0.8-1.9,0.9-25.7,0.5-81.6c-0.5-72-0.7-79-2.2-80.7
	c-0.9-1-1.4-2.5-1.1-3.4c0.5-1.3,5.5-1.5,40.7-1.5c43.6,0,43.2-0.1,39.6,5.5c-1.5,2.2-1.6,10.3-1.4,83.2l0.3,80.8l53.9,0.3
	c39,0.2,54.3-0.1,55.2-0.9c1.9-1.6,2-175.8,0.2-177.7c-0.9-0.9-35.6-1.2-149.9-1.2H105.2L104.5,269 M139.1,275.8
	c-4,0.3-4.3,0.5-3.6,2.5c1.1,3.1,1.7,14.4,1.1,17.1c-0.3,1.3-1.5,2.5-2.6,2.8c-2,0.5-2,1.3-2,47.1c0,44.7,0.1,46.6,1.9,47.1
	c2,0.6,3.1,4.4,3.1,10.6c0,3.5-0.4,4-3.5,5.3c-3.4,1.4-4.7,4.2-2.2,5c0.7,0.2,16.2,0.6,34.6,0.8l33.3,0.5l-0.3-2.6
	c-0.2-2-1.1-2.8-4-3.6c-2-0.6-4.3-1.6-5-2.3c-1-1-1.4-13.9-1.6-61.1l-0.3-59.8l2.5-3c3.2-3.8,3.3-6.2,0.3-6.3
	C184.5,275.6,142.9,275.5,139.1,275.8 M319.4,277.4c-0.3,0.8,0.4,2.7,1.5,4.2c2,2.8,2,4.2,2.2,62.9c0.1,33-0.1,60.6-0.5,61.3
	c-0.4,0.6-2.3,1.8-4.2,2.6c-3.2,1.3-4.5,3.8-2.7,4.9c0.4,0.3,15.4,0.6,33.2,0.8c31.8,0.3,32.5,0.3,32.5-1.7c0-1.3-1.3-2.6-3.8-3.8
	c-3.3-1.6-3.8-2.3-3.8-5.5c0-4.9,1.6-10.1,3.5-11.5c1.4-1,1.5-6.1,1.3-45.9l-0.3-44.7l-2.8-2.2c-2.6-2.1-2.8-2.8-2.9-9.7
	c-0.1-4.1,0.2-8.7,0.7-10.2l0.8-2.8h-27.1C324.5,276,319.8,276.2,319.4,277.4 M232.2,290.3c-1.5,1.9-1.7,153.5-0.2,155
	c0.7,0.7,1.6,0.8,2.6,0.1c1.4-0.9,1.5-8.9,1.4-72.2c-0.1-49,0.2-71.9,1-73.2c1-1.9,2.1-2,19.3-2c12.9,0,18.6,0.4,19.5,1.2
	c0.9,0.9,1.2,9.4,1.2,31.9c0,26,0.2,30.9,1.5,31.9c2.7,2.2,1.6,2.9-6.6,3.6l-8.1,0.7l0.3,3.1c0.3,3.1,0.4,3.1,6.5,3.4
	c5.7,0.3,6.3,0.5,6.9,2.7c0.3,1.3,0.4,3.1,0.1,3.9c-0.3,0.8-0.6,15.7-0.7,33.3l-0.2,31.8h3.4h3.4l0.3-76.3
	c0.2-51.5-0.1-76.9-0.8-78.2c-1-1.8-2.3-1.9-25.4-1.9C238.7,289,233,289.3,232.2,290.3 M170.5,298c-0.9,1.5-1,13.4-0.1,14.8
	c0.9,1.5,5.1,1.5,7.7,0.1c1.6-0.9,1.9-2.1,1.9-7.3c0-3.5-0.5-6.8-1.2-7.5C177.3,296.7,171.4,296.6,170.5,298 M333.1,297.9
	c-1.9,1.3-2.5,10-0.9,13.1c1.1,2,2.1,2.5,5.3,2.5c3.7,0,4-0.2,4.9-3.7c0.5-2.2,0.5-5.4,0-8c-0.8-4-1.1-4.3-4.4-4.6
	C336.1,297.1,333.9,297.4,333.1,297.9 M155.6,304.6c-1.3,3.3-0.6,9.5,1,10.1c2.3,0.9,3.4-1.4,3.4-6.9c0-4-0.3-4.8-1.9-4.8
	C157.1,303,155.9,303.7,155.6,304.6 M171.2,319.3c-1.7,2.1-2.5,7.1-1.7,11.2c0.6,3.2,1,3.5,3.9,3.5c5.6,0,6.8-1.7,6.4-9l-0.3-6.5
	l-3.6-0.3C173.7,318,171.9,318.4,171.2,319.3 M332.6,318.9c-0.3,0.5-0.9,3-1.2,5.5c-0.9,6.5,1.3,9.6,6.7,9.6h4l-0.3-7.8l-0.3-7.8
	l-4.2-0.3C335.1,318,332.9,318.3,332.6,318.9 M157.2,321.7c-0.8,0.3-1.2,2.6-1.2,6.5c0,5.2,0.2,5.9,1.8,5.7c1.4-0.3,1.8-1.6,2-6.6
	C160.1,321.2,159.8,320.6,157.2,321.7 M170.9,339.7c-0.9,1-1.4,4.1-1.4,8.2v6.6l3.8,0.3c5.4,0.4,6.7-1,6.7-7.9
	c0-3.2-0.3-6.5-0.6-7.4C178.6,337.5,172.7,337.5,170.9,339.7 M333.2,339.2c-0.7,0.7-1.2,3.8-1.2,7.5c0,7.1,1.5,8.7,7.3,8.1
	c3.1-0.3,3.2-0.5,3.5-5c0.2-2.6-0.1-6.2-0.6-8c-0.7-2.9-1.3-3.4-4.3-3.6C336,338,333.9,338.5,333.2,339.2 M157.2,339.9
	c-0.7,0.4-1.6,3.4-1.9,6.5c-0.6,5.6-0.5,5.7,1.8,5.4c2.1-0.3,2.4-0.9,2.7-5.7C160.1,340.4,159.3,338.6,157.2,339.9 M286,368.6
	c0,6.4,0.3,8.5,1.2,8.2c0.8-0.3,1.3-3.2,1.5-8.6c0.2-6.8,0-8.2-1.2-8.2C286.3,360,286,361.5,286,368.6 M172.2,376.6
	c-2.8,2-2.9,6-0.2,7.5c1.1,0.6,3.6,0.8,5.5,0.4c3-0.6,3.5-1.1,3.5-3.4c0-2.9-2.7-6-5.1-6C175.1,375,173.4,375.7,172.2,376.6
	 M334.2,377c-2.6,1-3.1,5-0.8,6.9c0.8,0.7,3.1,1,5.2,0.9c3.6-0.3,3.8-0.5,3.7-3.7C342.1,376.3,339.4,375,334.2,377 M170.6,394.6
	c-3.7,3.7-0.2,8,5.4,6.5c4.9-1.3,3.2-8-2.1-8C172.9,393,171.4,393.7,170.6,394.6 M333.8,394.1c-2.3,1.3-2.2,5.2,0.2,7.3
	c1.3,1.2,3.2,1.6,5.8,1.4c3.6-0.3,3.9-0.6,4.2-3.8c0.2-2.4-0.2-3.8-1.4-4.8C340.3,392.8,336.2,392.7,333.8,394.1 M255.5,453
	c-33.6,0.5-35,0.6-35.4,2.5c-0.8,4.2,1.2,4.4,37.1,3.9c18.8-0.2,34.8-0.6,35.5-0.9c1.8-0.6,1.5-5.1-0.3-5.9
	c-0.9-0.3-1.7-0.5-1.8-0.4C290.6,452.4,274.8,452.7,255.5,453"/>
</svg>
