<svg xmlns="http://www.w3.org/2000/svg" width="512" height="512" viewBox="0 0 512 512" version="1.1">
	<path d="M 249.500 36.213 C 245.006 37.794, 244.141 38.799, 243.806 42.826 C 243.509 46.393, 243.354 46.525, 238.500 47.364 C 204.313 53.268, 178.372 66.238, 149.375 91.922 C 138.861 101.235, 127.919 113.869, 125.630 119.339 C 124.465 122.122, 123.004 123.005, 113.403 126.726 C 93.662 134.377, 79.325 144.467, 75.020 153.739 C 73.804 156.358, 71.779 159.625, 70.519 161 C 66.773 165.088, 65 169.587, 65 175 C 65 181.354, 66.537 184.359, 72.535 189.730 C 76.842 193.586, 77.199 194.248, 76.590 197.230 C 74.506 207.424, 74.605 208.481, 78.008 212.357 L 81.244 216.041 80.101 257.271 C 79.472 279.947, 78.719 311.100, 78.426 326.500 C 78.133 341.900, 77.664 356.006, 77.383 357.847 C 77.077 359.853, 75.497 362.570, 73.437 364.630 C 69.662 368.405, 69.470 369.180, 71.130 373.943 C 72.115 376.768, 72.596 377.104, 74.880 376.560 C 76.321 376.216, 80.537 375.665, 84.250 375.334 C 90.631 374.764, 91 374.846, 91 376.830 C 91 379.840, 88.355 380.873, 77.814 381.980 C 53.992 384.484, 51.079 385.165, 51.015 388.242 C 51.007 388.649, 51.900 389.545, 53 390.232 C 55.387 391.722, 55.646 395.538, 53.418 396.393 C 52.548 396.727, 47.860 397, 43 397 C 31.603 397, 30.929 397.267, 32.091 401.316 C 33.106 404.857, 33.336 430.069, 32.396 434.771 C 31.936 437.071, 31.120 437.926, 28.976 438.355 C 26.246 438.901, 24.036 442.370, 25.492 443.825 C 26.374 444.707, 484.626 444.707, 485.508 443.825 C 486.858 442.476, 484.849 439.143, 482.110 438.188 L 479.303 437.210 478.593 420.148 C 478.090 408.052, 478.215 402.467, 479.023 400.958 C 479.649 399.787, 480.013 398.709, 479.831 398.562 C 477.599 396.762, 474.529 396.265, 468.469 396.724 C 458.269 397.495, 454.215 394.831, 459 390.500 C 463.003 386.878, 461.658 385.518, 452.750 384.181 C 445.203 383.048, 426.684 381.088, 422.941 381.026 C 420.269 380.982, 417.835 378.595, 418.553 376.724 C 419.383 374.561, 425.290 374.435, 432.756 376.423 C 437.792 377.764, 438.074 377.733, 439.506 375.688 C 442.041 372.069, 441.362 368.525, 437.480 365.117 C 435.544 363.417, 433.425 360.783, 432.770 359.263 C 431.991 357.457, 431.354 346.106, 430.930 326.500 C 430.573 310, 429.713 279.535, 429.020 258.801 C 428.326 238.066, 428.045 219.573, 428.396 217.704 C 428.826 215.412, 429.846 213.935, 431.531 213.168 C 435.261 211.468, 436.571 207.848, 435.159 203.137 C 432.974 195.844, 433.507 194.165, 439.930 188.099 C 444.304 183.970, 446.031 181.558, 446.512 178.909 C 447.335 174.370, 445.720 168.285, 442.528 163.901 C 441.166 162.030, 438.803 158.250, 437.276 155.500 C 430.726 143.702, 416.760 133.550, 397.255 126.406 C 387.273 122.750, 386.954 122.537, 384.803 118.077 C 381.952 112.166, 357.385 87.574, 346.255 79.489 C 320.138 60.518, 300.709 52.179, 271.758 47.515 C 268.711 47.024, 267.911 46.410, 267.448 44.206 C 266.550 39.923, 265.584 38.619, 261.925 36.752 C 258.112 34.805, 254.008 34.627, 249.500 36.213 M 238.500 55.418 C 222.565 59.091, 202.552 70.121, 189.500 82.424 L 184.500 87.137 189.500 86.589 C 192.250 86.287, 198.100 85.389, 202.500 84.592 C 218.599 81.678, 232.009 80.692, 255 80.735 C 279.501 80.780, 292.823 81.793, 311.376 85.022 C 317.436 86.077, 322.546 86.788, 322.732 86.602 C 323.416 85.917, 311.423 75.673, 304.569 71.088 C 285.257 58.168, 275.904 54.846, 257.500 54.371 C 248.856 54.147, 242.489 54.498, 238.500 55.418 M 236 97.650 C 216.757 99.466, 208.755 100.498, 198.354 102.504 C 184.805 105.116, 169.670 109.003, 170.360 109.693 C 170.607 109.941, 178.390 109.237, 187.655 108.129 C 219.885 104.277, 230.652 103.558, 256 103.571 C 280.714 103.583, 292.556 104.341, 319.222 107.621 C 326.219 108.481, 332.512 108.996, 333.205 108.765 C 337.323 107.392, 298.474 99.966, 277.328 98.084 C 266.129 97.087, 244.389 96.859, 236 97.650 M 223 117.605 C 220.525 117.818, 212.425 118.463, 205 119.038 C 167.381 121.951, 126.551 131.183, 103.196 142.055 C 87.025 149.583, 74.025 159.183, 70.333 166.323 C 69.008 168.886, 69.548 168.650, 75.679 163.985 C 79.431 161.131, 87.900 156.172, 94.500 152.965 C 121.374 139.906, 154.209 132.066, 206 126.344 C 225.130 124.231, 279.790 123.929, 299.500 125.827 C 361.645 131.813, 410.175 145.835, 435.758 165.196 C 441.282 169.376, 441.845 169.613, 440.557 167.216 C 436.538 159.734, 426.760 151.908, 412.500 144.759 C 388.991 132.974, 346.764 122.696, 306.500 118.961 C 294.710 117.867, 231.820 116.846, 223 117.605 M 212.500 152.586 C 210.850 152.803, 203.875 153.481, 197 154.092 C 180.870 155.526, 157.321 159.201, 144 162.364 C 119.024 168.293, 94.730 178.459, 86.351 186.488 C 82.080 190.581, 80.542 195, 83.389 195 C 84.153 195, 88.991 192.796, 94.139 190.103 C 115.564 178.895, 148.683 170.135, 187 165.542 C 228.593 160.556, 297.360 161.498, 337 167.597 C 373.229 173.171, 395.212 179.206, 413.884 188.702 C 420.695 192.166, 426.658 195, 427.134 195 C 427.610 195, 428 193.806, 428 192.346 C 428 183.848, 399.173 169.839, 366.730 162.570 C 353.158 159.529, 328.429 155.597, 312.500 153.948 C 302.111 152.872, 218.931 151.739, 212.500 152.586 M 201.073 171.088 C 195.724 172.137, 194.060 173.970, 195.868 176.821 C 196.554 177.902, 197.755 177.836, 202.496 176.458 C 207.995 174.859, 211.016 174.876, 218.750 176.548 C 222.896 177.444, 223.218 175.103, 219.365 172.073 C 216.489 169.810, 209.502 169.434, 201.073 171.088 M 294.219 172.469 C 290.714 175.419, 289.758 178.706, 292.750 177.521 C 299.021 175.039, 304.932 174.653, 310.974 176.333 C 317.630 178.184, 319 177.942, 319 174.916 C 319 172.295, 315.961 171.263, 305.811 170.440 C 297.705 169.782, 297.336 169.847, 294.219 172.469 M 134.750 179.689 C 132.904 180.172, 132.424 183.542, 133.875 185.832 C 134.498 186.814, 136.005 186.979, 139.610 186.458 C 147.104 185.375, 147.803 184.712, 144.709 181.618 C 142.191 179.100, 139.213 178.523, 134.750 179.689 M 366.250 180.933 C 361.372 183.991, 361.964 185.997, 367.750 186.014 C 370.363 186.021, 373.468 186.287, 374.651 186.604 C 376.437 187.084, 376.919 186.646, 377.496 184.019 C 378.342 180.168, 378.149 179.952, 373.333 179.363 C 370.591 179.028, 368.575 179.475, 366.250 180.933 M 205.872 184.652 C 204.803 185.939, 204.347 193.615, 203.808 219.402 C 203.427 237.606, 202.626 254.975, 202.026 258 C 201.427 261.025, 200.683 268.215, 200.372 273.978 C 199.846 283.737, 199.608 284.683, 196.893 287.774 C 194.432 290.577, 194.154 291.419, 195.101 293.189 C 196.344 295.511, 196.434 351.403, 195.198 353.609 C 194.814 354.295, 194.516 342.514, 194.536 327.428 C 194.570 301.662, 194.463 300, 192.771 300 C 191.071 300, 190.985 301.663, 191.235 329.750 L 191.500 359.500 200.500 359.794 C 215.054 360.270, 213.552 364.003, 213.176 328.294 C 212.959 307.644, 213.263 294.371, 214.099 288 C 215.627 276.361, 215.471 187.748, 213.918 184.847 C 212.671 182.517, 207.746 182.397, 205.872 184.652 M 300.123 184.770 C 299.599 185.749, 299.136 198.825, 299.087 214.020 C 299.038 229.134, 298.486 245.059, 297.861 249.409 C 296.650 257.829, 297.042 276.294, 298.997 303 C 300.188 319.261, 299.913 352.899, 298.558 356.750 L 297.767 359 309.633 359.001 L 321.500 359.002 321.204 330.755 C 320.967 308.102, 320.620 302.070, 319.454 300.290 C 318.654 299.069, 318 295.859, 318 293.157 C 318 289.176, 317.575 287.961, 315.757 286.755 C 313.853 285.490, 313.427 284.079, 312.930 277.383 C 312.608 273.047, 312.672 268.849, 313.072 268.053 C 313.473 267.257, 313.376 265.490, 312.858 264.127 C 311.541 260.662, 310.052 230.348, 310.024 206.405 C 310.002 188.225, 309.826 186.152, 308.171 184.655 C 305.755 182.468, 301.321 182.531, 300.123 184.770 M 394.329 188.466 C 392.585 189.220, 390.684 190.722, 390.105 191.804 C 389.121 193.643, 389.457 193.801, 395.276 194.239 C 398.699 194.496, 402.228 195.023, 403.119 195.410 C 404.222 195.889, 404.875 195.538, 405.170 194.307 C 406.173 190.125, 405.159 189.001, 399 187.468 C 398.175 187.263, 396.073 187.712, 394.329 188.466 M 105.667 190.065 C 103.602 193.013, 104.658 196.353, 107.388 195.506 C 108.549 195.146, 111.638 194.603, 114.250 194.299 C 119.507 193.686, 120.368 192.072, 116.777 189.557 C 113.491 187.255, 107.442 187.531, 105.667 190.065 M 141.122 194.353 C 139.282 196.570, 138.836 210.003, 138.152 283.668 L 137.500 353.835 135.162 356.996 C 133.876 358.735, 132.976 360.237, 133.162 360.334 C 133.348 360.431, 137.325 360.364, 142 360.185 L 150.500 359.860 150.349 305.180 C 150.173 241.431, 149.176 197.230, 147.859 194.750 C 146.757 192.675, 142.713 192.436, 141.122 194.353 M 363.251 195.250 C 362.687 195.959, 362.008 207.538, 361.683 222 C 361.368 236.034, 360.606 249.218, 359.989 251.320 C 359.235 253.887, 359.077 260.614, 359.506 271.820 C 359.858 280.994, 360.225 304.588, 360.323 324.250 L 360.500 360.001 366.625 360 C 369.994 360, 374.269 360.303, 376.125 360.672 L 379.500 361.345 376.372 357.777 L 373.244 354.208 372.557 297.854 C 371.613 220.451, 370.851 197.721, 369.128 195.650 C 367.500 193.694, 364.643 193.499, 363.251 195.250 M 81.750 201.080 C 80.002 202.098, 79.331 205.561, 80.750 206.242 C 81.162 206.441, 85.100 206.355, 89.500 206.051 L 97.500 205.500 94.795 202.750 C 92.663 200.581, 91.183 200.006, 87.795 200.030 C 85.433 200.047, 82.713 200.519, 81.750 201.080 M 417.465 200.952 C 415.356 201.806, 412.419 204.795, 413.107 205.385 C 413.323 205.570, 417.663 206.004, 422.750 206.350 C 432.820 207.034, 433.896 206.413, 429.961 202.189 C 427.810 199.880, 421.621 199.267, 417.465 200.952 M 110.872 205.653 C 109.855 206.878, 109.332 212.767, 108.853 228.403 C 108.497 240.006, 107.709 250.767, 107.103 252.315 C 106.347 254.243, 106 272.139, 106 309.123 L 106 363.115 110.146 362.807 L 114.291 362.500 114.082 312.940 L 113.872 263.379 116.487 262.188 L 119.103 260.996 118.418 234.248 C 118.041 219.537, 117.327 206.713, 116.831 205.750 C 115.694 203.542, 112.666 203.493, 110.872 205.653 M 391.626 206.189 C 390.402 208.074, 390.100 213.197, 389.986 234 C 389.910 248.025, 389.881 260.077, 389.923 260.782 C 389.966 261.487, 390.959 262.419, 392.131 262.853 L 394.263 263.641 394.381 313.071 L 394.500 362.500 397.895 362.824 C 399.937 363.019, 401.625 362.621, 402.130 361.824 C 402.592 361.096, 402.960 336.425, 402.949 307 C 402.933 262.483, 402.689 253.080, 401.500 251 C 400.401 249.077, 400.059 243.998, 400.021 229 C 399.967 208.223, 399.308 204.768, 395.288 204.189 C 393.899 203.989, 392.590 204.704, 391.626 206.189 M 86.098 215.816 C 85.516 216.905, 84.856 245.055, 84.452 286.066 C 83.906 341.441, 83.512 355.056, 82.384 357.412 C 81.618 359.014, 81.106 360.403, 81.246 360.499 C 81.386 360.595, 84.791 360.470, 88.812 360.220 C 94.710 359.855, 96.016 359.484, 95.562 358.302 C 95.253 357.496, 95 325.405, 95 286.990 C 95 224.826, 94.827 216.970, 93.429 215.571 C 91.307 213.450, 87.293 213.584, 86.098 215.816 M 415 214.978 C 413.697 215.801, 413.434 225.359, 413 287.713 C 412.725 327.196, 412.500 359.552, 412.500 359.616 C 412.500 359.679, 416.202 359.973, 420.726 360.269 L 428.952 360.808 427.476 357.953 C 426.344 355.765, 426.004 351.183, 426.018 338.300 C 426.055 304.358, 423.713 216.488, 422.739 215.250 C 421.582 213.780, 417.143 213.624, 415 214.978 M 255 243.509 C 255 245.352, 253.275 248.092, 249.460 252.308 C 244.090 258.241, 243.980 258.478, 245.887 259.965 C 247.614 261.311, 250 269.874, 250 274.725 C 250 275.472, 247.745 277.484, 244.989 279.197 C 242.234 280.910, 240.138 282.472, 240.334 282.667 C 240.529 282.862, 244.074 282.496, 248.212 281.852 C 253.625 281.011, 257.806 280.970, 263.117 281.708 C 270.801 282.774, 272.706 282.534, 269.736 280.872 C 268.775 280.334, 266.789 278.862, 265.322 277.601 L 262.656 275.307 263.861 267.904 C 264.604 263.332, 265.696 260.025, 266.714 259.257 C 268.228 258.116, 268.194 257.830, 266.304 255.757 C 265.172 254.516, 263.059 252.191, 261.610 250.590 C 260.160 248.990, 258.622 246.320, 258.191 244.658 C 257.174 240.733, 255 239.950, 255 243.509 M 171.841 288.005 C 167.606 292.240, 168.511 293.543, 175.513 293.293 C 178.704 293.178, 181.719 292.681, 182.214 292.186 C 183.344 291.056, 178.390 285, 176.334 285 C 175.516 285, 173.494 286.352, 171.841 288.005 M 329.381 287.528 C 327.990 288.919, 327.031 290.594, 327.250 291.251 C 328.159 293.976, 339.680 294.998, 340.661 292.440 C 341.413 290.480, 336.336 285, 333.767 285 C 332.745 285, 330.771 286.138, 329.381 287.528 M 245.705 286.599 C 245.267 287.052, 241.224 287.441, 236.719 287.462 C 227.293 287.506, 226.429 288.388, 230.271 294.050 C 232.256 296.977, 233.133 297.467, 236.056 297.281 C 257.016 295.948, 264.428 295.869, 270.441 296.916 C 275.443 297.787, 277.536 297.800, 278.542 296.965 C 280.402 295.421, 282.414 289.008, 281.358 287.985 C 280.197 286.861, 246.707 285.559, 245.705 286.599 M 173.750 300.689 C 172.130 301.113, 172 303.484, 172 332.573 C 172 366.971, 171.642 365.008, 177.620 363.404 C 179.705 362.844, 179.747 362.351, 180.244 332.667 C 180.689 306.092, 180.563 302.351, 179.183 301.250 C 177.581 299.971, 176.806 299.891, 173.750 300.689 M 329 331.471 C 329 364.057, 328.785 362.692, 334 363.238 L 336.500 363.500 336.500 332.500 L 336.500 301.500 332.750 301.190 L 329 300.879 329 331.471 M 241.184 302.852 L 234.868 303.500 234.963 331.186 C 235.015 346.413, 234.760 362.439, 234.396 366.800 L 233.735 374.729 182.618 375.327 C 136.698 375.864, 116.086 376.692, 103.250 378.518 C 99.226 379.090, 99 379.299, 99 382.439 C 99 388.040, 100.200 388.369, 117.775 387.582 C 136.569 386.742, 137.840 386.486, 138.617 383.389 L 139.217 381 164.969 381 C 179.132 381, 192.702 380.728, 195.124 380.396 C 199.441 379.805, 199.548 379.859, 200.514 383.146 L 201.500 386.500 253 386.777 C 281.325 386.929, 305.481 386.816, 306.681 386.525 C 307.968 386.213, 308.992 385.075, 309.181 383.748 L 309.500 381.500 335 381.393 C 349.025 381.334, 362.637 380.946, 365.250 380.530 L 370 379.773 370 382.757 C 370 385.655, 370.167 385.759, 375.750 386.334 C 378.913 386.660, 387.641 387.227, 395.146 387.593 C 408.256 388.233, 408.834 388.178, 409.896 386.195 C 411.678 382.865, 411.220 380.033, 408.750 379.108 C 403.515 377.147, 375.280 375.821, 327.373 375.286 L 276.246 374.715 275.123 367.915 C 274.478 364.007, 274 348.993, 274 332.616 C 274 316.069, 273.609 303.876, 273.067 303.542 C 271.606 302.639, 248.199 302.132, 241.184 302.852 M 282 331.871 C 282 346.413, 282.401 358.130, 282.910 358.444 C 283.410 358.753, 284.543 358.729, 285.426 358.390 C 286.854 357.842, 287.004 354.916, 286.767 332.137 L 286.500 306.500 284.250 306.180 L 282 305.861 282 331.871 M 224.667 307.667 C 224.300 308.033, 224 319.508, 224 333.167 L 224 358 226.500 358 L 229 358 229 332.500 C 229 308.439, 228.897 307, 227.167 307 C 226.158 307, 225.033 307.300, 224.667 307.667 M 309.250 363.747 C 298.234 364.059, 298 364.114, 298 366.390 C 298 368.638, 298.359 368.738, 308.812 369.400 C 318.037 369.983, 328 369.484, 328 368.437 C 328 368.268, 327.561 366.976, 327.025 365.565 C 326.266 363.569, 325.434 363.047, 323.275 363.214 C 321.749 363.331, 315.438 363.571, 309.250 363.747 M 82.542 364.708 C 79.023 365.640, 76 368.189, 76 370.223 C 76 371.782, 76.490 372.100, 78.250 371.683 C 79.487 371.389, 83.200 370.853, 86.500 370.492 C 95.219 369.539, 96.163 369.151, 95.808 366.664 C 95.538 364.768, 94.819 364.481, 90 364.344 C 86.975 364.259, 83.619 364.422, 82.542 364.708 M 130.413 364.924 C 126.102 365.981, 125 366.822, 125 369.059 C 125 370.828, 125.730 370.995, 133.250 370.942 C 137.787 370.911, 143.300 370.566, 145.500 370.175 C 148.902 369.572, 149.500 369.095, 149.500 366.983 C 149.500 364.560, 149.307 364.496, 141.500 364.334 C 137.100 364.242, 132.111 364.508, 130.413 364.924 M 186 366.500 L 186 369 200 369 L 214 369 214 366.500 L 214 364 200 364 L 186 364 186 366.500 M 359.746 365.250 C 358.552 368.799, 360.084 369.710, 368.329 370.352 C 386.100 371.735, 388.945 370.945, 384 366 C 382.244 364.244, 380.667 364, 371.083 364 C 363.241 364, 360.048 364.352, 359.746 365.250 M 413.696 365.190 C 409.887 368.067, 412.550 369.527, 423.759 370.705 C 434.962 371.883, 436 371.778, 436 369.467 C 436 365.581, 417.798 362.090, 413.696 365.190 M 58.657 401.250 C 57.685 418.119, 57.868 435.884, 59.035 438.066 C 60.386 440.589, 64.445 440.555, 67 438 C 68.881 436.119, 69 434.667, 69 413.607 C 69 388.935, 69.290 390, 62.571 390 L 59.306 390 58.657 401.250 M 441.656 402.109 C 441.295 408.822, 441 418.908, 441 424.522 C 441 433.335, 441.283 435.090, 443.073 437.365 C 445.327 440.231, 449.064 440.833, 450.896 438.625 C 451.697 437.660, 451.957 430.278, 451.769 413.875 L 451.500 390.500 446.906 390.202 L 442.313 389.903 441.656 402.109 M 198 393.300 C 198 396.920, 199.235 397, 255.200 397 L 310 397 310 394.500 L 310 392 254 392 C 208.718 392, 198 392.249, 198 393.300 M 118.200 394.200 C 117.348 395.052, 117 401.117, 117 415.129 C 117 431.730, 117.249 435.106, 118.571 436.429 C 120.755 438.613, 125.608 438.392, 128 436 C 129.862 434.138, 130 432.667, 130 414.700 C 130 401.022, 129.650 395.050, 128.800 394.200 C 128.140 393.540, 125.755 393, 123.500 393 C 121.245 393, 118.860 393.540, 118.200 394.200 M 380.485 394.024 C 380.138 394.587, 379.680 403.482, 379.468 413.791 C 379.015 435.892, 379.424 437.500, 385.500 437.500 C 391.480 437.500, 391.968 435.762, 391.985 414.405 C 391.999 398.134, 391.816 396.143, 390.171 394.655 C 388.160 392.835, 381.489 392.400, 380.485 394.024 M 195 404 C 195 405.100, 195.563 406.038, 196.250 406.084 C 201.405 406.430, 313.773 406.559, 314.750 406.220 C 315.438 405.981, 316 404.934, 316 403.893 C 316 402.057, 314.194 402, 255.500 402 C 195.667 402, 195 402.022, 195 404 M 192.250 411.659 C 188.853 412.148, 188.043 413.961, 190.361 415.885 C 191.349 416.705, 209.382 416.944, 256.111 416.757 L 320.500 416.500 320.820 414.250 L 321.139 412 266.320 411.994 C 236.169 411.991, 207.900 411.809, 203.500 411.590 C 199.100 411.371, 194.037 411.402, 192.250 411.659 M 186 424.442 L 186 427 255.031 427 C 316.328 427, 324.129 426.827, 324.655 425.457 C 324.981 424.608, 325.042 423.708, 324.791 423.457 C 324.540 423.206, 293.209 422.750, 255.167 422.443 L 186 421.885 186 424.442 M 174.422 433.127 C 173.566 434.511, 175.197 436.830, 177.322 437.251 C 178.520 437.488, 214.185 437.799, 256.577 437.943 C 327.516 438.183, 333.787 438.071, 335.327 436.530 C 337.308 434.550, 337.496 432.991, 335.750 433.024 C 335.063 433.037, 298.579 432.909, 254.675 432.741 C 210.771 432.572, 174.657 432.745, 174.422 433.127" stroke="none" fill="black" fill-rule="evenodd"/>
</svg>